<?xml version="1.0" standalone="no"?>
<!DOCTYPE svg PUBLIC "-//W3C//DTD SVG 1.1//EN" "http://www.w3.org/Graphics/SVG/1.1/DTD/svg11.dtd" >
<svg>
<metadata>
Created by FontForge 20110222 at Wed Apr 30 07:16:57 2014
 By Orthosie Webhosting
Copyright (c) 2009 by Roman Shamin &#38; Jovanny Lemonad. All rights reserved.
</metadata>
<defs>
<font id="HattoriHanzo-Light" horiz-adv-x="163" >
  <font-face 
    font-family="Hattori Hanzo"
    font-weight="300"
    font-stretch="normal"
    units-per-em="1000"
    panose-1="2 0 5 6 2 0 0 2 0 3"
    ascent="750"
    descent="-250"
    x-height="466"
    cap-height="700"
    bbox="-48 -231 2345 880"
    underline-thickness="50"
    underline-position="-50"
    stemh="61"
    stemv="61"
    unicode-range="U+0020-2265"
  />
<missing-glyph horiz-adv-x="250" 
 />
    <glyph glyph-name=".notdef" horiz-adv-x="250" 
 />
    <glyph glyph-name="afii10018" unicode="&#x411;" horiz-adv-x="551" 
d="M265 0h-215v700h423v-61h-357v-218h149c179 0 256 -71 256 -213c0 -127 -83 -208 -256 -208zM265 61c98 0 187 21 187 151c0 132 -85 148 -187 148h-149v-299h149z" />
    <glyph glyph-name="afii10019" unicode="&#x412;" horiz-adv-x="558" 
d="M486 527c0 -141 -116 -149 -116 -149v-3s148 -15 148 -173c0 -127 -62 -202 -242 -202h-226v700h204c174 0 232 -74 232 -173zM113 640v-241h155c84 0 153 44 153 128c0 83 -55 113 -167 113h-141zM276 61c98 0 173 11 173 141c0 100 -70 136 -160 136h-176v-277h163z
" />
    <glyph glyph-name="afii10020" unicode="&#x413;" horiz-adv-x="464" 
d="M50 700h394v-61h-331v-639h-63v700z" />
    <glyph glyph-name="afii10021" unicode="&#x414;" horiz-adv-x="627" 
d="M607 61v-244h-44l-23 183h-464l-22 -183h-44v244h50c67 60 96 216 96 639h382v-639h69zM220 639c0 -285 -16 -488 -83 -578h338v578h-255z" />
    <glyph glyph-name="afii10022" unicode="&#x415;" horiz-adv-x="492" 
d="M462 0h-412v700h408v-61h-345v-247h294v-61h-294v-270h349v-61z" />
    <glyph glyph-name="afii10024" unicode="&#x416;" horiz-adv-x="858" 
d="M748 190c26 -92 39 -141 100 -156l-10 -47c-87 0 -126 46 -162 203c-29 123 -74 143 -149 143h-66v-333h-64v333h-67c-74 0 -120 -20 -148 -143c-37 -157 -75 -203 -163 -203l-9 47c61 15 74 64 99 156c27 97 52 153 121 177c-55 20 -70 63 -96 157
c-26 91 -49 130 -111 144l5 43c86 0 141 -27 178 -187c28 -121 56 -129 130 -129h61v305h64v-305h60c75 0 103 8 131 129c37 160 92 187 177 187l6 -43c-63 -14 -85 -53 -111 -144c-26 -94 -41 -137 -97 -157c70 -24 94 -80 121 -177z" />
    <glyph glyph-name="afii10025" unicode="&#x417;" horiz-adv-x="524" 
d="M258 344h-109v60h106c97 0 141 58 141 131c0 78 -68 117 -165 117c-100 0 -174 -35 -174 -35l-17 39s94 55 203 55c134 0 221 -70 221 -178c0 -119 -114 -155 -114 -155v-3s134 -25 134 -184c0 -130 -105 -204 -239 -204c-129 0 -225 61 -225 61l18 41s85 -43 195 -43
c140 0 181 75 181 147c0 86 -44 151 -156 151z" />
    <glyph glyph-name="afii10026" unicode="&#x418;" horiz-adv-x="608" 
d="M113 103l374 597h71v-700h-63v597l-374 -597h-71v700h63v-597z" />
    <glyph glyph-name="afii10027" unicode="&#x419;" horiz-adv-x="608" 
d="M400 857h61c0 -65 -51 -129 -154 -129c-117 0 -155 64 -155 129h61c0 -36 25 -76 94 -76c65 0 93 41 93 76zM113 103l374 597h71v-700h-63v597l-374 -597h-71v700h63v-597z" />
    <glyph glyph-name="afii10028" unicode="&#x41a;" horiz-adv-x="539" 
d="M415 190c26 -92 53 -141 114 -156l-10 -47c-87 0 -140 46 -176 203c-28 123 -60 143 -135 143h-94v-333h-64v700h64v-305h86c74 0 102 8 130 129c37 160 92 187 178 187l5 -43c-62 -14 -85 -53 -111 -144c-26 -93 -48 -136 -99 -156c68 -24 85 -81 112 -178z" />
    <glyph glyph-name="afii10029" unicode="&#x41b;" horiz-adv-x="604" 
d="M10 -12l-10 46c115 33 154 133 154 666h400v-700h-63v639h-273c0 -474 -26 -632 -208 -651z" />
    <glyph glyph-name="afii10030" unicode="&#x41c;" horiz-adv-x="730" 
d="M113 0h-63v700h63l259 -494l244 494h64v-700h-64v559l-214 -427h-58l-231 435v-567z" />
    <glyph glyph-name="afii10031" unicode="&#x41d;" horiz-adv-x="595" 
d="M481 391v309h64v-700h-64v330h-368v-330h-63v700h63v-309h368z" />
    <glyph glyph-name="afii10032" unicode="&#x41e;" horiz-adv-x="647" 
d="M324 711c160 0 283 -112 283 -362s-123 -362 -283 -362s-284 112 -284 362s124 362 284 362zM324 48c110 0 212 80 212 301s-102 301 -212 301s-212 -80 -212 -301s102 -301 212 -301z" />
    <glyph glyph-name="afii10033" unicode="&#x41f;" horiz-adv-x="581" 
d="M50 700h481v-700h-63v639h-354v-639h-64v700z" />
    <glyph glyph-name="afii10035" unicode="&#x421;" horiz-adv-x="558" 
d="M347 48c105 0 171 46 171 46l20 -39s-74 -68 -213 -68c-141 0 -285 83 -285 356c0 291 155 368 283 368c114 0 200 -62 200 -62l-20 -39s-72 40 -158 40c-132 0 -234 -76 -234 -307c0 -215 92 -295 236 -295z" />
    <glyph glyph-name="afii10036" unicode="&#x422;" horiz-adv-x="521" 
d="M20 700h481v-61h-209v-639h-63v639h-209v61z" />
    <glyph glyph-name="afii10037" unicode="&#x423;" horiz-adv-x="573" 
d="M483 700h70l-221 -575c-33 -86 -72 -138 -146 -138c-36 0 -72 17 -97 41l18 37s34 -20 70 -20c37 0 64 19 93 98l1 5l-251 552h70l213 -469z" />
    <glyph glyph-name="afii10038" unicode="&#x424;" horiz-adv-x="753" 
d="M410 681c149 0 313 -78 313 -317c0 -240 -164 -317 -313 -317v-76h-67v76c-149 0 -313 77 -313 317c0 239 164 317 313 317v59h67v-59zM343 108v512c-101 0 -240 -51 -240 -256s139 -256 240 -256zM410 108c101 0 240 51 240 256s-139 256 -240 256v-512z" />
    <glyph glyph-name="afii10039" unicode="&#x425;" horiz-adv-x="550" 
d="M270 413h10l187 287h77l-226 -347l232 -353h-77l-198 301l-198 -301h-77l232 353l-226 347h77z" />
    <glyph glyph-name="afii10040" unicode="&#x426;" horiz-adv-x="606" 
d="M50 0v700h64v-639h340v639h63v-639h69v-244h-45l-22 183h-469z" />
    <glyph glyph-name="afii10041" unicode="&#x427;" horiz-adv-x="556" 
d="M442 342v358h64v-700h-64v292s-82 -33 -200 -33c-144 0 -202 81 -202 202v239h64v-239c0 -95 45 -146 143 -146c128 0 195 27 195 27z" />
    <glyph glyph-name="afii10042" unicode="&#x428;" horiz-adv-x="815" 
d="M765 0h-715v700h64v-639h262v639h63v-639h262v639h64v-700z" />
    <glyph glyph-name="afii10043" unicode="&#x429;" horiz-adv-x="854" 
d="M834 61v-244h-44l-22 183h-718v700h64v-639h262v639h63v-639h263v639h63v-639h69z" />
    <glyph glyph-name="afii10044" unicode="&#x42a;" horiz-adv-x="672" 
d="M10 639v61h238v-288h124c180 0 270 -70 270 -204c0 -138 -97 -208 -270 -208h-190v639h-172zM372 61c99 0 201 17 201 147c0 131 -99 144 -201 144h-124v-291h124z" />
    <glyph glyph-name="afii10045" unicode="&#x42b;" horiz-adv-x="701" 
d="M651 700v-700h-64v700h64zM227 0h-177v700h67v-288h110c180 0 270 -70 270 -204c0 -138 -97 -208 -270 -208zM227 61c98 0 201 17 201 147c0 131 -99 144 -201 144h-110v-291h110z" />
    <glyph glyph-name="afii10046" unicode="&#x42c;" horiz-adv-x="527" 
d="M227 0h-177v700h66v-288h111c179 0 270 -70 270 -204c0 -138 -97 -208 -270 -208zM116 61h111c98 0 201 17 201 147c0 131 -99 144 -201 144h-111v-291z" />
    <glyph glyph-name="afii10047" unicode="&#x42d;" horiz-adv-x="557" 
d="M243 711c128 0 274 -63 274 -354c0 -273 -132 -370 -273 -370c-139 0 -224 68 -224 68l19 39s77 -46 182 -46c138 0 218 86 224 281h-319v60h319c-8 205 -99 261 -225 261c-85 0 -158 -40 -158 -40l-19 39s85 62 200 62z" />
    <glyph glyph-name="afii10048" unicode="&#x42e;" horiz-adv-x="802" 
d="M492 711c160 0 270 -112 270 -362s-110 -362 -270 -362c-156 0 -264 106 -270 343h-108v-330h-64v700h64v-309h109c12 221 118 320 269 320zM492 48c110 0 196 80 196 301s-86 301 -196 301s-197 -80 -197 -301s87 -301 197 -301z" />
    <glyph glyph-name="afii10049" unicode="&#x42f;" horiz-adv-x="570" 
d="M325 700h195v-700h-67v287h-64c-75 0 -158 -3 -182 -124c-31 -158 -108 -176 -181 -176l-6 46c59 20 91 38 114 130c18 73 43 117 87 141c-108 23 -159 87 -159 192c0 138 90 204 263 204zM453 348v291h-128c-99 0 -193 -13 -193 -143c0 -131 91 -148 193 -148h128z" />
    <glyph glyph-name="D" unicode="D" horiz-adv-x="572" 
d="M50 700h198c160 0 284 -111 284 -351c0 -238 -124 -349 -284 -349h-198v700zM248 61c110 0 212 79 212 288c0 211 -102 290 -212 290h-134v-578h134z" />
    <glyph glyph-name="F" unicode="F" horiz-adv-x="478" 
d="M50 700h408v-61h-345v-248h293v-61h-293v-330h-63v700z" />
    <glyph glyph-name="G" unicode="G" horiz-adv-x="588" 
d="M474 84v274h64v-306s-74 -65 -213 -65c-141 0 -285 83 -285 356c0 277 155 368 283 368c114 0 200 -62 200 -62l-19 -39s-73 40 -159 40c-131 0 -233 -86 -233 -307c0 -215 95 -295 230 -295c55 0 101 19 132 36z" />
    <glyph glyph-name="I" unicode="I" 
d="M113 700v-700h-63v700h63z" />
    <glyph glyph-name="J" unicode="J" horiz-adv-x="226" 
d="M113 219v481h63v-481c0 -77 -18 -224 -169 -232l-7 46c70 20 113 59 113 186z" />
    <glyph glyph-name="K" unicode="K" horiz-adv-x="527" 
d="M113 252v-252h-63v700h63v-353l297 353h81l-262 -311l298 -389h-80l-260 339z" />
    <glyph glyph-name="L" unicode="L" horiz-adv-x="482" 
d="M462 0h-412v700h63v-639h349v-61z" />
    <glyph glyph-name="N" unicode="N" horiz-adv-x="608" 
d="M558 0h-71l-374 598v-598h-63v700h71l374 -598v598h63v-700z" />
    <glyph glyph-name="Q" unicode="Q" horiz-adv-x="654" 
d="M415 1l199 -127l-19 -30s-78 20 -271 143c-160 0 -284 112 -284 362s124 362 284 362s283 -112 283 -362c0 -200 -79 -311 -192 -348zM112 349c0 -221 102 -301 212 -301s211 80 211 301s-101 301 -211 301s-212 -80 -212 -301z" />
    <glyph glyph-name="R" unicode="R" horiz-adv-x="533" 
d="M503 0h-71l-145 288c-17 -1 -35 -2 -53 -2h-117v-286h-67v700h184c172 0 269 -66 269 -204c0 -100 -50 -168 -151 -196zM117 347h117c101 0 200 17 200 149c0 130 -102 143 -200 143h-117v-292z" />
    <glyph glyph-name="S" unicode="S" horiz-adv-x="533" 
d="M477 666l-14 -43s-81 27 -173 27c-97 0 -179 -28 -179 -123c0 -84 82 -107 169 -135c142 -47 223 -95 223 -217c0 -120 -94 -188 -230 -188c-167 0 -243 65 -243 65l20 42s95 -46 196 -46c148 0 187 61 187 133c0 73 -60 106 -171 143c-110 37 -220 76 -220 199
c0 122 94 188 227 188c116 0 208 -45 208 -45z" />
    <glyph glyph-name="U" unicode="U" horiz-adv-x="584" 
d="M534 700v-462c0 -198 -139 -251 -242 -251c-102 0 -242 53 -242 251v462h63v-462c0 -129 69 -190 179 -190s178 61 178 190v462h64z" />
    <glyph glyph-name="V" unicode="V" horiz-adv-x="584" 
d="M321 0h-58l-263 700h68l224 -596l224 596h68z" />
    <glyph glyph-name="W" unicode="W" horiz-adv-x="886" 
d="M407 634h72l165 -510l175 576h67l-212 -700h-59l-172 531l-172 -531h-59l-212 700h67l175 -576z" />
    <glyph glyph-name="Y" unicode="Y" horiz-adv-x="585" 
d="M514 700h71l-254 -430v-270h-64v267l-267 433h71l228 -366z" />
    <glyph glyph-name="Z" unicode="Z" horiz-adv-x="515" 
d="M34 639v61h457v-61l-394 -578h398v-61h-475v61l394 578h-380z" />
    <glyph glyph-name="space" unicode=" " horiz-adv-x="250" 
 />
    <glyph glyph-name="afii10065" unicode="&#x430;" horiz-adv-x="443" 
d="M228 472c107 0 165 -45 165 -197v-275h-49s-6 36 -9 71c-31 -32 -91 -76 -161 -76c-84 0 -139 46 -139 119c0 86 63 152 297 155v6c0 115 -32 146 -119 146c-63 0 -136 -27 -136 -27l-13 37s77 41 164 41zM178 46c55 0 109 33 154 87v87c-147 -1 -236 -25 -236 -102
c0 -52 38 -72 82 -72z" />
    <glyph glyph-name="afii10066" unicode="&#x431;" horiz-adv-x="467" 
d="M240 45c83 0 132 56 132 175c0 103 -40 166 -114 166c-73 0 -132 -61 -147 -115v-51c0 -120 49 -175 129 -175zM262 438c100 0 172 -76 172 -218c0 -141 -66 -231 -194 -231c-106 0 -190 81 -190 231v140c0 230 114 283 250 313l125 27l12 -55l-97 -21
c-190 -41 -220 -104 -229 -264c29 45 79 78 151 78z" />
    <glyph glyph-name="afii10067" unicode="&#x432;" horiz-adv-x="425" 
d="M50 0v466h169c81 0 144 -36 144 -117c0 -82 -72 -100 -72 -100v-2s104 -12 104 -115c0 -89 -66 -132 -145 -132h-200zM206 416h-95v-146h111c52 0 85 33 85 77c0 50 -36 69 -101 69zM226 217h-115v-167h121c84 0 105 36 105 85c0 56 -41 82 -111 82z" />
    <glyph glyph-name="afii10068" unicode="&#x433;" horiz-adv-x="352" 
d="M50 0v466h282v-52h-221v-414h-61z" />
    <glyph glyph-name="afii10069" unicode="&#x434;" horiz-adv-x="481" 
d="M10 -141v194h30c45 32 72 129 72 413h297v-413h52v-194h-40l-22 141h-327l-22 -141h-40zM113 53h235v361h-178c0 -140 -6 -284 -57 -361z" />
    <glyph glyph-name="afii10070" unicode="&#x435;" horiz-adv-x="428" 
d="M250 42c79 0 127 23 127 23l13 -35s-61 -41 -151 -41c-122 0 -209 87 -209 239c0 157 100 250 203 250c132 0 165 -132 165 -246l-307 -5c0 -131 85 -185 159 -185zM233 428c-63 0 -127 -59 -140 -162c19 3 87 13 244 17c-2 75 -36 145 -104 145z" />
    <glyph glyph-name="afii10072" unicode="&#x436;" horiz-adv-x="641" 
d="M351 466v-194h38c43 0 79 10 91 67c26 120 67 133 129 133l8 -40c-33 -10 -61 -18 -73 -94c-5 -29 -16 -51 -35 -68c-21 -18 -42 -21 -42 -21v-2s23 -3 42 -22s31 -46 38 -81c13 -72 41 -92 84 -104l-11 -45c-73 0 -109 25 -136 149c-17 75 -52 77 -105 77h-28v-221h-61
v221h-28c-53 0 -88 -2 -105 -77c-27 -124 -63 -149 -136 -149l-11 45c43 12 71 32 84 104c7 35 19 62 38 81s42 22 42 22v2s-21 3 -42 21c-19 17 -30 39 -35 68c-12 76 -40 84 -73 94l8 40c62 0 103 -13 129 -133c12 -57 48 -67 91 -67h38v194h61z" />
    <glyph glyph-name="afii10073" unicode="&#x437;" horiz-adv-x="396" 
d="M194 217h-87v56h86c59 0 87 33 87 82c0 53 -44 71 -109 71c-68 0 -125 -23 -125 -23l-13 37s75 38 149 38c90 0 159 -42 159 -124c0 -80 -78 -103 -78 -103v-2s93 -12 93 -123c0 -89 -83 -137 -173 -137c-87 0 -163 41 -163 41l14 39s66 -27 141 -27c94 0 119 41 119 85
c0 58 -24 90 -100 90z" />
    <glyph glyph-name="afii10075" unicode="&#x439;" horiz-adv-x="454" 
d="M343 360l-232 -360h-61v466h61v-359l232 359h61v-466h-61v360zM304 624h53c0 -56 -43 -112 -130 -112c-100 0 -130 56 -130 112h52c0 -31 20 -69 78 -69s77 39 77 69z" />
    <glyph glyph-name="afii10076" unicode="&#x43a;" horiz-adv-x="415" 
d="M320 144c13 -72 43 -92 85 -104l-11 -45c-73 0 -110 25 -138 149c-16 75 -50 77 -103 77h-42v-221h-61v466h61v-194h52c43 0 80 10 92 67c26 120 66 133 128 133l8 -40c-33 -11 -60 -18 -72 -94c-4 -29 -17 -51 -35 -68c-22 -18 -42 -21 -42 -21v-2s22 -3 41 -22
s30 -46 37 -81z" />
    <glyph glyph-name="afii10077" unicode="&#x43b;" horiz-adv-x="456" 
d="M12 -5l-12 45c77 21 105 96 105 426h301v-466h-61v414h-179c0 -314 -39 -404 -154 -419z" />
    <glyph glyph-name="afii10078" unicode="&#x43c;" horiz-adv-x="575" 
d="M110 0h-60v466h60l182 -324l173 324h60v-466h-60v351l-142 -273h-60l-153 278v-356z" />
    <glyph glyph-name="afii10079" unicode="&#x43d;" horiz-adv-x="447" 
d="M336 213h-226v-213h-60v466h60v-198h226v198h61v-466h-61v213z" />
    <glyph glyph-name="afii10080" unicode="&#x43e;" horiz-adv-x="477" 
d="M240 478c106 0 207 -83 207 -245c0 -161 -104 -244 -210 -244s-207 83 -207 244c0 162 104 245 210 245zM237 42c84 0 147 61 147 191c0 131 -67 192 -144 192c-73 0 -147 -61 -147 -192c0 -130 63 -191 144 -191z" />
    <glyph glyph-name="afii10081" unicode="&#x43f;" horiz-adv-x="454" 
d="M50 466h354v-466h-61v414h-232v-414h-61v466z" />
    <glyph glyph-name="afii10082" unicode="&#x440;" horiz-adv-x="458" 
d="M50 -217v683h49s6 -36 9 -70c28 34 79 82 147 82c123 0 163 -110 163 -226c0 -201 -90 -263 -209 -263c-41 0 -78 18 -98 34v-240h-61zM354 252c0 87 -25 175 -104 175c-54 0 -97 -40 -139 -95v-257c17 -15 47 -36 94 -36c75 0 149 19 149 213z" />
    <glyph glyph-name="afii10083" unicode="&#x441;" horiz-adv-x="396" 
d="M241 40c73 0 122 27 122 27l13 -37s-53 -41 -150 -41c-106 0 -196 86 -196 240c0 153 88 249 195 249c87 0 141 -41 141 -41l-13 -37s-50 26 -113 26c-87 0 -150 -82 -150 -197c0 -113 64 -189 151 -189z" />
    <glyph glyph-name="afii10084" unicode="&#x442;" horiz-adv-x="399" 
d="M20 466h359v-52h-149v-414h-61v414h-149v52z" />
    <glyph glyph-name="afii10086" unicode="&#x444;" horiz-adv-x="579" 
d="M259 458v200h61v-200c129 0 219 -56 219 -230c0 -156 -90 -219 -219 -219v-226h-61v226c-129 0 -219 63 -219 219c0 174 90 230 219 230zM259 406c-111 0 -155 -47 -155 -178c0 -119 57 -167 155 -167v345zM320 61c98 0 156 48 156 167c0 131 -45 178 -156 178v-345z" />
    <glyph glyph-name="afii10088" unicode="&#x446;" horiz-adv-x="476" 
d="M456 53v-194h-40l-22 141h-344v466h61v-413h232v413h61v-413h52z" />
    <glyph glyph-name="afii10089" unicode="&#x447;" horiz-adv-x="434" 
d="M323 238v228h61v-466h-61v187s-61 -20 -139 -20c-92 0 -144 65 -144 148v151h61v-145c0 -48 16 -103 83 -103c78 0 139 20 139 20z" />
    <glyph glyph-name="afii10090" unicode="&#x448;" horiz-adv-x="634" 
d="M584 0h-534v466h61v-413h176v413h60v-413h176v413h61v-413v-53z" />
    <glyph glyph-name="afii10091" unicode="&#x449;" horiz-adv-x="655" 
d="M635 53v-194h-40l-22 141h-523v466h61v-413h175v413h61v-413h175v413h61v-413h52z" />
    <glyph glyph-name="afii10092" unicode="&#x44a;" horiz-adv-x="490" 
d="M288 282c112 0 172 -53 172 -142c0 -86 -63 -140 -172 -140h-160v411h-118v55h179v-184h99zM189 52h99c85 0 112 44 112 88c0 43 -25 91 -112 91h-99v-179z" />
    <glyph glyph-name="afii10093" unicode="&#x44b;" horiz-adv-x="558" 
d="M508 466v-466h-60v466h60zM111 52h99c85 0 112 44 112 88c0 43 -25 91 -112 91h-99v-179zM210 282c112 0 172 -53 172 -142c0 -86 -63 -140 -172 -140h-160v466h61v-184h99z" />
    <glyph glyph-name="afii10094" unicode="&#x44c;" horiz-adv-x="412" 
d="M111 52h99c85 0 112 44 112 88c0 43 -25 91 -112 91h-99v-179zM210 282c112 0 172 -53 172 -142c0 -86 -63 -140 -172 -140h-160v466h61v-184h99z" />
    <glyph glyph-name="afii10095" unicode="&#x44d;" horiz-adv-x="390" 
d="M165 478c107 0 195 -83 195 -235c0 -166 -91 -254 -198 -254c-91 0 -142 41 -142 41l13 37s45 -27 119 -27c90 0 137 71 143 181h-211v49c114 0 179 -8 211 -14c-4 107 -61 170 -145 170c-63 0 -113 -26 -113 -26l-13 37s54 41 141 41z" />
    <glyph glyph-name="afii10096" unicode="&#x44e;" horiz-adv-x="599" 
d="M383 478c106 0 186 -83 186 -245c0 -161 -83 -244 -189 -244c-104 0 -183 79 -187 232h-83v-221h-60v466h60v-190h85c14 133 91 202 188 202zM380 42c83 0 126 61 126 191c0 131 -47 192 -123 192c-73 0 -129 -61 -129 -192c0 -130 45 -191 126 -191z" />
    <glyph glyph-name="afii10097" unicode="&#x44f;" horiz-adv-x="418" 
d="M208 466h170v-466h-60v190h-49c-52 0 -81 -2 -101 -75c-26 -97 -65 -120 -137 -120l-11 45c42 12 68 18 84 75c7 27 16 49 27 65c21 25 36 25 36 25v1s-28 1 -53 14c-42 21 -68 59 -68 112c0 81 73 134 162 134zM318 241v174h-110c-66 0 -105 -33 -105 -83
c0 -75 63 -91 132 -91h83z" />
    <glyph glyph-name="afii10074" unicode="&#x438;" horiz-adv-x="454" 
d="M343 360l-232 -360h-61v466h61v-359l232 359h61v-466h-61v360z" />
    <glyph glyph-name="b" unicode="b" horiz-adv-x="456" 
d="M222 478c111 0 204 -65 204 -231c0 -152 -83 -258 -215 -258c-96 0 -161 46 -161 46v665h61v-254c21 16 57 32 111 32zM199 43c101 0 166 73 166 204c0 122 -63 179 -154 179c-47 0 -80 -20 -100 -39v-327c22 -9 52 -17 88 -17z" />
    <glyph glyph-name="d" unicode="d" horiz-adv-x="448" 
d="M398 683v-683h-49s-6 36 -9 70c-28 -34 -79 -82 -147 -82c-123 0 -163 110 -163 226c0 201 90 263 209 263c41 0 78 -18 98 -34v240h61zM94 214c0 -87 25 -175 104 -175c54 0 97 40 139 95v257c-17 15 -47 36 -94 36c-75 0 -149 -19 -149 -213z" />
    <glyph glyph-name="f" unicode="f" horiz-adv-x="302" 
d="M234 661c-38 0 -70 -21 -70 -107v-88h119v-53c-52 0 -90 3 -119 7v-420h-60v413h-84v53h84v88c0 116 46 157 127 157c52 0 101 -37 101 -37l-13 -35s-47 22 -85 22z" />
    <glyph glyph-name="g" unicode="g" horiz-adv-x="435" 
d="M138 77h121c50 0 157 -19 157 -134c0 -110 -93 -154 -209 -154c-131 0 -187 56 -187 134c0 57 35 101 55 121c-16 11 -25 29 -25 53c0 36 33 72 43 82c-29 30 -43 73 -43 123c0 104 75 170 168 170c35 0 65 -8 89 -21c9 4 54 15 118 15v-47c-65 0 -83 3 -83 3l-1 -1
s21 -18 35 -55c7 -19 10 -41 10 -64c0 -99 -71 -169 -168 -169c-37 0 -68 8 -93 22c-19 -21 -48 -78 13 -78zM218 423c-71 0 -112 -48 -112 -121c0 -70 31 -120 112 -120c71 0 111 50 111 120c0 72 -30 121 -111 121zM211 -161c65 0 147 19 147 104c0 57 -50 85 -99 85h-121
c-8 0 -15 0 -21 1c0 0 -39 -29 -39 -96c0 -86 74 -94 133 -94z" />
    <glyph glyph-name="h" unicode="h" horiz-adv-x="452" 
d="M402 307v-307h-61v307c0 78 -14 120 -83 120c-52 0 -103 -36 -147 -88v-339h-61v700h61v-296c32 33 88 74 152 74c113 0 139 -73 139 -171z" />
    <glyph glyph-name="i" unicode="i" horiz-adv-x="173" 
d="M56 466h61v-466h-61v466zM123 579c0 -20 -16 -35 -36 -35s-37 15 -37 35c0 19 17 35 37 35s36 -16 36 -35z" />
    <glyph glyph-name="j" unicode="j" horiz-adv-x="195" 
d="M78 0v466h61v-466c0 -77 -2 -223 -152 -231l-7 38c70 19 98 66 98 193zM145 579c0 -20 -16 -35 -36 -35c-21 0 -37 15 -37 35c0 19 16 35 37 35c20 0 36 -16 36 -35z" />
    <glyph glyph-name="k" unicode="k" horiz-adv-x="417" 
d="M208 271l199 -271h-74l-165 226l-57 -63v-163h-61v700h61v-454l199 220h75z" />
    <glyph glyph-name="l" unicode="l" horiz-adv-x="184" 
d="M112 225c0 -108 -1 -170 42 -199l-7 -37c-100 11 -96 131 -96 236v475h61v-475z" />
    <glyph glyph-name="m" unicode="m" horiz-adv-x="699" 
d="M511 478c114 0 138 -83 138 -210v-268h-61v268c0 86 -13 159 -81 159c-54 0 -87 -38 -127 -93v-334h-61v287c0 76 -17 140 -81 140c-54 0 -88 -39 -127 -93v-334h-61v466h49s6 -34 9 -68c24 34 67 80 134 80c72 0 108 -33 125 -95c22 34 67 95 144 95z" />
    <glyph glyph-name="n" unicode="n" horiz-adv-x="458" 
d="M256 478c113 0 152 -83 152 -210v-268h-61v268c0 86 -27 159 -95 159c-55 0 -99 -39 -141 -94v-333h-61v466h49s6 -35 9 -70c28 34 80 82 148 82z" />
    <glyph glyph-name="q" unicode="q" horiz-adv-x="456" 
d="M234 -11c-111 0 -204 65 -204 231c0 152 83 258 215 258c96 0 161 -46 161 -46v-649h-61v238c-21 -16 -57 -32 -111 -32zM257 424c-101 0 -166 -73 -166 -204c0 -122 63 -179 154 -179c47 0 80 20 100 39v327c-22 9 -52 17 -88 17z" />
    <glyph glyph-name="r" unicode="r" horiz-adv-x="318" 
d="M131 385c24 37 76 87 177 87v-65c-172 0 -197 -136 -197 -136v-271h-61v466h49s12 -75 12 -113v-10s7 23 20 42z" />
    <glyph glyph-name="s" unicode="s" horiz-adv-x="394" 
d="M346 447l-12 -34s-57 14 -120 14c-65 0 -123 -13 -123 -77c0 -47 53 -59 113 -77c96 -30 160 -50 160 -149c0 -89 -77 -135 -168 -135c-113 0 -166 44 -166 44l15 33s65 -24 133 -24c100 0 127 37 127 86c0 50 -38 66 -114 85c-76 20 -159 48 -159 134
c0 94 79 131 169 131c78 0 145 -31 145 -31z" />
    <glyph glyph-name="t" unicode="t" horiz-adv-x="343" 
d="M320 61l13 -35s-52 -37 -104 -37c-80 0 -125 48 -125 157v267h-84v53h84v51c0 63 16 114 16 114h45v-165h118v-53c-51 0 -90 3 -118 7v-274c0 -90 31 -107 69 -107c39 0 86 22 86 22z" />
    <glyph glyph-name="u" unicode="u" horiz-adv-x="457" 
d="M201 -11c-113 0 -151 84 -151 211v266h60v-266c0 -86 27 -160 95 -160c55 0 99 39 141 94v332h61v-466h-49s-5 36 -9 71c-28 -34 -80 -82 -148 -82z" />
    <glyph glyph-name="v" unicode="v" horiz-adv-x="408" 
d="M62 466l146 -367l138 367h62l-175 -466h-51l-182 466h62z" />
    <glyph glyph-name="w" unicode="w" horiz-adv-x="624" 
d="M284 422h56l114 -314l111 358h59l-144 -466h-49l-119 327l-119 -327h-49l-144 466h59l111 -358z" />
    <glyph glyph-name="z" unicode="z" horiz-adv-x="378" 
d="M29 411v55h326v-54l-262 -357h265v-55h-338v54l262 357h-253z" />
    <glyph glyph-name="zero" unicode="0" horiz-adv-x="565" 
d="M282 711c160 0 243 -111 243 -362c0 -250 -83 -362 -243 -362s-242 112 -242 362c0 251 82 362 242 362zM282 48c110 0 169 80 169 301c0 222 -59 302 -169 302s-169 -80 -169 -302c0 -221 59 -301 169 -301z" />
    <glyph glyph-name="one" unicode="1" horiz-adv-x="269" 
d="M178 700h41v-700h-66v629l-133 -42v48z" />
    <glyph glyph-name="two" unicode="2" horiz-adv-x="466" 
d="M436 527c0 -223 -290 -252 -342 -466h334v-61h-398v61c0 212 336 286 336 463c0 81 -26 126 -140 126c-85 0 -157 -56 -157 -56l-25 42s80 75 195 75c128 0 197 -62 197 -184z" />
    <glyph glyph-name="three" unicode="3" horiz-adv-x="486" 
d="M238 415c60 0 218 -21 218 -220c0 -128 -91 -208 -225 -208c-130 0 -211 61 -211 61l18 41s71 -43 181 -43c139 0 167 80 167 151c0 87 -30 158 -143 158h-108v39l210 245h-303v61h385v-61l-193 -224h4z" />
    <glyph glyph-name="four" unicode="4" horiz-adv-x="492" 
d="M472 258v-61h-69v-197h-64v197h-319v61l261 454h71l-261 -454h248v208h64v-208h69z" />
    <glyph glyph-name="five" unicode="5" horiz-adv-x="478" 
d="M86 700h353v-61h-295l-18 -223c17 11 61 27 111 27c113 0 211 -76 211 -221c0 -129 -99 -235 -232 -235c-130 0 -186 61 -186 61l21 41s42 -43 153 -43c139 0 173 112 173 172c0 104 -42 166 -144 166c-86 0 -135 -42 -135 -42l-40 8z" />
    <glyph glyph-name="six" unicode="6" horiz-adv-x="497" 
d="M254 -13c-189 0 -214 173 -214 358c0 271 129 366 251 366c86 0 146 -56 146 -56l-23 -37s-43 37 -111 37c-144 0 -202 -118 -202 -295v-23h3c16 37 72 98 163 98c119 0 200 -82 200 -219c0 -141 -98 -229 -213 -229zM279 378c-126 0 -167 -117 -173 -141
c10 -104 43 -195 148 -195c74 0 149 55 149 174c0 98 -50 162 -124 162z" />
    <glyph glyph-name="seven" unicode="7" horiz-adv-x="455" 
d="M20 700h415v-61l-206 -639h-70l206 639h-345v61z" />
    <glyph glyph-name="eight" unicode="8" horiz-adv-x="515" 
d="M322 376c107 -57 158 -110 158 -204c0 -112 -80 -185 -224 -185c-143 0 -221 71 -221 180c0 123 117 190 156 208c-81 46 -123 94 -123 174c0 85 61 162 189 162c122 0 188 -70 188 -165c0 -89 -83 -148 -123 -170zM132 549c0 -70 53 -107 134 -144c1 0 2 -1 3 -1
c38 15 114 61 114 139c0 76 -51 111 -126 111c-65 0 -125 -28 -125 -105zM257 45c115 0 158 54 158 127s-39 115 -158 169l-12 6c-33 -13 -147 -74 -147 -172c0 -70 39 -130 159 -130z" />
    <glyph glyph-name="nine" unicode="9" horiz-adv-x="497" 
d="M243 711c189 0 214 -173 214 -358c0 -271 -129 -366 -251 -366c-86 0 -146 56 -146 56l23 37s43 -37 111 -37c144 0 202 118 202 295v23h-3c-16 -37 -72 -98 -163 -98c-119 0 -200 82 -200 219c0 141 98 229 213 229zM218 320c126 0 167 117 173 141
c-10 104 -43 195 -148 195c-74 0 -149 -55 -149 -174c0 -98 50 -162 124 -162z" />
    <glyph glyph-name="Euro" unicode="&#x20ac;" horiz-adv-x="542" 
d="M353 48c90 0 142 45 142 45l27 -38s-48 -68 -187 -68c-113 0 -221 66 -243 274h-92l14 48h74v34v38h-88l14 48h78c25 221 145 282 237 282c114 0 164 -62 164 -62l-24 -36s-45 38 -118 38c-96 0 -169 -57 -188 -222h289l-14 -48h-278c-1 -12 -1 -25 -1 -38v-34h265
l-14 -48h-247c16 -154 81 -213 190 -213z" />
    <glyph glyph-name="dollar" unicode="$" horiz-adv-x="477" 
d="M263 389c134 -46 184 -106 184 -213c0 -100 -71 -177 -184 -187v-80h-48v80c-130 7 -185 65 -185 65l23 38s72 -43 160 -43h2v283c-100 37 -173 94 -173 192c0 111 76 175 173 187v65h48v-64c97 -5 159 -45 159 -45l-20 -43s-64 28 -136 28h-3v-263zM111 529
c0 -65 39 -97 104 -123v242c-61 -11 -104 -44 -104 -119zM263 53c89 15 115 72 115 130c0 55 -27 97 -115 132v-262z" />
    <glyph glyph-name="ampersand" unicode="&#x26;" horiz-adv-x="623" 
d="M555 333c0 -85 -17 -151 -46 -202c61 -55 104 -91 104 -91l-27 -39c-27 14 -66 44 -110 82c-59 -67 -142 -96 -222 -96c-147 0 -224 72 -224 186c0 93 62 146 153 213c-49 63 -81 121 -81 173c0 106 80 152 168 152c84 0 157 -46 157 -131c0 -83 -57 -132 -162 -203
c30 -36 63 -71 96 -104c36 -36 72 -70 104 -101c30 58 39 122 39 161h51zM270 655c-72 0 -104 -36 -104 -91c0 -44 28 -96 69 -149c74 56 134 93 134 162c0 52 -45 78 -99 78zM258 43c82 0 138 34 175 79c-39 37 -81 78 -122 121c-34 35 -66 70 -95 103
c-71 -54 -121 -100 -121 -172c0 -88 69 -131 163 -131z" />
    <glyph glyph-name="trademark" unicode="&#x2122;" horiz-adv-x="588" 
d="M418 501l104 199h46v-295h-46v204l-84 -159h-38l-92 162v-207h-46v295h46zM0 659v41h234v-41h-94v-254h-47v254h-93z" />
    <glyph glyph-name="copyright" unicode="&#xa9;" horiz-adv-x="766" 
d="M405 157c67 0 102 31 102 31l22 -31s-47 -49 -136 -49c-90 0 -191 59 -191 233c0 186 108 241 190 241c73 0 128 -46 128 -46l-17 -30s-45 27 -100 27c-84 0 -143 -44 -143 -192c0 -137 53 -184 145 -184zM383 711c195 0 353 -128 353 -362c0 -230 -166 -362 -353 -362
c-183 0 -353 129 -353 362c0 237 169 362 353 362zM383 21c163 0 308 107 308 328s-154 327 -308 327s-309 -106 -309 -327s144 -328 309 -328z" />
    <glyph glyph-name="registered" unicode="&#xae;" horiz-adv-x="766" 
d="M537 442c0 -66 -33 -110 -98 -128l98 -196h-54l-95 188c-8 -1 -17 -1 -26 -1h-62v-187h-51v456h113c112 0 175 -42 175 -132zM357 351c67 0 130 17 130 91c0 77 -66 86 -130 86h-57v-177h57zM383 711c195 0 353 -128 353 -362c0 -230 -166 -362 -353 -362
c-183 0 -353 129 -353 362c0 237 169 362 353 362zM383 21c163 0 308 107 308 328s-154 327 -308 327s-309 -106 -309 -327s144 -328 309 -328z" />
    <glyph glyph-name="at" unicode="@" horiz-adv-x="854" 
d="M434 -23c114 0 220 51 280 124l29 -26c-78 -102 -197 -150 -309 -150c-215 0 -404 139 -404 412c0 279 219 442 432 442c231 0 362 -140 362 -336c0 -204 -130 -337 -219 -337c-27 0 -80 13 -73 115c0 0 -37 -115 -149 -115c-77 0 -156 62 -156 206c0 146 99 290 237 290
c53 0 86 -18 107 -35l3 23h59l-43 -350c-5 -37 -9 -79 23 -79c42 0 161 69 161 282c0 188 -139 286 -312 286c-153 0 -371 -120 -371 -392c0 -260 187 -360 343 -360zM547 358l18 159c-29 27 -66 33 -101 33c-107 0 -172 -116 -172 -233c0 -73 16 -156 100 -156
c108 0 155 197 155 197z" />
    <glyph glyph-name="exclam" unicode="!" horiz-adv-x="202" 
d="M152 36c0 -27 -23 -49 -51 -49s-51 22 -51 49s23 49 51 49s51 -22 51 -49zM136 700v-232c0 -106 -10 -326 -10 -326h-50s-9 220 -9 326v232h69z" />
    <glyph glyph-name="period" unicode="." horiz-adv-x="162" 
d="M132 36c0 -27 -22 -49 -51 -49c-28 0 -51 22 -51 49s23 49 51 49c29 0 51 -22 51 -49z" />
    <glyph glyph-name="comma" unicode="," 
d="M76 -13c-26 2 -46 23 -46 49c0 27 23 49 51 49s51 -22 51 -49c2 -18 -1 -38 -8 -59c-15 -49 -64 -86 -64 -86l-24 22s32 32 40 74z" />
    <glyph glyph-name="guillemotleft" unicode="&#xab;" horiz-adv-x="382" 
d="M228 473l-137 -237l133 -231l-28 -17s-61 54 -176 252c115 199 174 253 174 253zM362 22l-34 -20s-52 40 -167 239c115 199 168 238 168 238l29 -17l-126 -217z" />
    <glyph glyph-name="paragraph" unicode="&#xb6;" horiz-adv-x="462" 
d="M231 700h181v-917h-56v856h-69v-856h-56v532c-97 0 -201 79 -201 191c0 120 104 194 201 194z" />
    <glyph glyph-name="parenright" unicode=")" horiz-adv-x="260" 
d="M151 267c0 283 -146 413 -146 413l24 30s191 -100 191 -443s-191 -443 -191 -443l-24 30s146 130 146 413z" />
    <glyph glyph-name="asterisk" unicode="*" horiz-adv-x="377" 
d="M86 438c21 38 49 73 69 96h-125v55c44 0 87 -6 118 -12l-62 108l47 28c22 -38 38 -79 49 -108l62 108l48 -28c-22 -38 -49 -72 -69 -96h124v-55c-44 0 -87 6 -117 12l62 -108l-48 -27c-22 38 -38 78 -48 107l-63 -107z" />
    <glyph glyph-name="bracketleft" unicode="[" horiz-adv-x="261" 
d="M256 -167h-206v867h206v-58h-143v-751h143v-58z" />
    <glyph glyph-name="bracketright" unicode="]" horiz-adv-x="261" 
d="M211 -167h-206v58h143v751h-143v58h206v-867z" />
    <glyph glyph-name="percent" unicode="%" horiz-adv-x="842" 
d="M209 711c90 0 176 -71 176 -208s-88 -207 -179 -207c-90 0 -176 70 -176 207s88 208 179 208zM206 351c71 0 114 41 114 152s-46 152 -111 152c-62 0 -114 -41 -114 -152s43 -152 111 -152zM635 402c91 0 177 -71 177 -208s-89 -207 -179 -207s-176 70 -176 207
s88 208 178 208zM633 42c71 0 114 41 114 152s-46 152 -112 152c-61 0 -113 -41 -113 -152s42 -152 111 -152zM722 700l-528 -700h-75l529 700h74z" />
    <glyph glyph-name="equal" unicode="=" horiz-adv-x="500" 
d="M20 438h460v-61h-460v61zM20 222h460v-60h-460v60z" />
    <glyph glyph-name="plus" unicode="+" horiz-adv-x="500" 
d="M282 331h198v-61h-198v-199h-64v199h-198v61h198v199h64v-199z" />
    <glyph glyph-name="hyphen" unicode="-" horiz-adv-x="340" 
d="M20 291h300v-61h-300v61z" />
    <glyph glyph-name="notequal" unicode="&#x2260;" horiz-adv-x="580" 
d="M201 151l-68 -78h-81l69 78h-101v61h153l153 175h-306v61h358l71 81h81l-71 -81h101v-61h-154l-152 -175h306v-61h-359z" />
    <glyph glyph-name="divide" unicode="&#xf7;" horiz-adv-x="580" 
d="M20 331h540v-61h-540v61zM338 503c0 -25 -21 -46 -48 -46s-49 21 -49 46c0 26 22 47 49 47s48 -21 48 -47zM338 98c0 -26 -21 -47 -48 -47s-49 21 -49 47s22 46 49 46s48 -20 48 -46z" />
    <glyph glyph-name="plusminus" unicode="&#xb1;" horiz-adv-x="580" 
d="M322 453h238v-61h-238v-198h-64v198h-238v61h238v198h64v-198zM20 114h540v-61h-540v61z" />
    <glyph glyph-name="lessequal" unicode="&#x2264;" horiz-adv-x="587" 
d="M124 345l433 -173v-67l-527 214v50l527 204v-69zM30 61h527v-61h-527v61z" />
    <glyph glyph-name="greaterequal" unicode="&#x2265;" horiz-adv-x="587" 
d="M463 345l-433 159v69l527 -204v-50l-527 -214v67zM30 61h527v-61h-527v61z" />
    <glyph glyph-name="multiply" unicode="&#xd7;" horiz-adv-x="522" 
d="M261 346l196 196l45 -45l-196 -196l196 -196l-45 -45l-196 196l-196 -196l-45 45l196 196l-196 196l45 45z" />
    <glyph glyph-name="A" unicode="A" horiz-adv-x="569" 
d="M481 0l-73 212h-257l-67 -212h-64l222 700h64l243 -700h-68zM169 269h219l-114 330z" />
    <glyph glyph-name="C" unicode="C" horiz-adv-x="558" 
d="M347 48c105 0 171 46 171 46l20 -39s-74 -68 -213 -68c-141 0 -285 83 -285 356c0 291 155 368 283 368c114 0 200 -62 200 -62l-20 -39s-72 40 -158 40c-132 0 -234 -76 -234 -307c0 -215 92 -295 236 -295z" />
    <glyph glyph-name="E" unicode="E" horiz-adv-x="492" 
d="M462 0h-412v700h408v-61h-345v-247h294v-61h-294v-270h349v-61z" />
    <glyph glyph-name="M" unicode="M" horiz-adv-x="730" 
d="M113 0h-63v700h63l259 -494l244 494h64v-700h-64v559l-214 -427h-58l-231 435v-567z" />
    <glyph glyph-name="O" unicode="O" horiz-adv-x="647" 
d="M324 711c160 0 283 -112 283 -362s-123 -362 -283 -362s-284 112 -284 362s124 362 284 362zM324 48c110 0 212 80 212 301s-102 301 -212 301s-212 -80 -212 -301s102 -301 212 -301z" />
    <glyph glyph-name="P" unicode="P" horiz-adv-x="533" 
d="M50 700h183c173 0 270 -66 270 -204c0 -134 -90 -210 -270 -210h-117v-286h-66v700zM434 496c0 130 -103 143 -201 143h-117v-292h117c102 0 201 18 201 149z" />
    <glyph glyph-name="T" unicode="T" horiz-adv-x="521" 
d="M20 700h481v-61h-209v-639h-63v639h-209v61z" />
    <glyph glyph-name="afii10071" unicode="&#x451;" horiz-adv-x="428" 
d="M250 42c79 0 127 23 127 23l13 -35s-61 -41 -151 -41c-122 0 -209 87 -209 239c0 157 100 250 203 250c132 0 165 -132 165 -246l-307 -5c0 -131 85 -185 159 -185zM233 428c-63 0 -127 -59 -140 -162c19 3 87 13 244 17c-2 75 -36 145 -104 145zM180 553
c0 -23 -19 -41 -42 -41c-24 0 -43 18 -43 41s19 41 43 41c23 0 42 -18 42 -41zM354 553c0 -23 -19 -41 -43 -41c-23 0 -43 18 -43 41s20 41 43 41c24 0 43 -18 43 -41z" />
    <glyph glyph-name="a" unicode="a" horiz-adv-x="443" 
d="M228 472c107 0 165 -45 165 -197v-275h-49s-6 36 -9 71c-31 -32 -91 -76 -161 -76c-84 0 -139 46 -139 119c0 86 63 152 297 155v6c0 115 -32 146 -119 146c-63 0 -136 -27 -136 -27l-13 37s77 41 164 41zM178 46c55 0 109 33 154 87v87c-147 -1 -236 -25 -236 -102
c0 -52 38 -72 82 -72z" />
    <glyph glyph-name="c" unicode="c" horiz-adv-x="396" 
d="M241 40c73 0 122 27 122 27l13 -37s-53 -41 -150 -41c-106 0 -196 86 -196 240c0 153 88 249 195 249c87 0 141 -41 141 -41l-13 -37s-50 26 -113 26c-87 0 -150 -82 -150 -197c0 -113 64 -189 151 -189z" />
    <glyph glyph-name="e" unicode="e" horiz-adv-x="428" 
d="M250 42c79 0 127 23 127 23l13 -35s-61 -41 -151 -41c-122 0 -209 87 -209 239c0 157 100 250 203 250c132 0 165 -132 165 -246l-307 -5c0 -131 85 -185 159 -185zM233 428c-63 0 -127 -59 -140 -162c19 3 87 13 244 17c-2 75 -36 145 -104 145z" />
    <glyph glyph-name="o" unicode="o" horiz-adv-x="477" 
d="M240 478c106 0 207 -83 207 -245c0 -161 -104 -244 -210 -244s-207 83 -207 244c0 162 104 245 210 245zM237 42c84 0 147 61 147 191c0 131 -67 192 -144 192c-73 0 -147 -61 -147 -192c0 -130 63 -191 144 -191z" />
    <glyph glyph-name="p" unicode="p" horiz-adv-x="448" 
d="M50 -217v683h49s6 -36 9 -70c28 34 79 82 147 82c123 0 163 -110 163 -226c0 -201 -90 -263 -209 -263c-41 0 -78 18 -98 34v-240h-61zM354 252c0 87 -25 175 -104 175c-54 0 -97 -40 -139 -95v-257c17 -15 47 -36 94 -36c75 0 149 19 149 213z" />
    <glyph glyph-name="x" unicode="x" horiz-adv-x="398" 
d="M195 292h8l115 174h69l-148 -225l159 -241h-71l-128 193l-128 -193h-71l159 241l-148 225h69z" />
    <glyph glyph-name="y" unicode="y" horiz-adv-x="408" 
d="M345 466h63l-166 -540c-28 -92 -70 -146 -145 -146c-33 0 -65 15 -86 37l21 34c14 -8 37 -19 61 -19c47 0 72 47 90 109l17 59h-41l-159 466h66l147 -428z" />
    <glyph glyph-name="X" unicode="X" horiz-adv-x="550" 
d="M270 413h10l187 287h77l-226 -347l232 -353h-77l-198 301l-198 -301h-77l232 353l-226 347h77z" />
    <glyph glyph-name="afii10034" unicode="&#x420;" horiz-adv-x="533" 
d="M50 700h183c173 0 270 -66 270 -204c0 -134 -90 -210 -270 -210h-117v-286h-66v700zM434 496c0 130 -103 143 -201 143h-117v-292h117c102 0 201 18 201 149z" />
    <glyph glyph-name="afii10087" unicode="&#x445;" horiz-adv-x="398" 
d="M195 292h8l115 174h69l-148 -225l159 -241h-71l-128 193l-128 -193h-71l159 241l-148 225h69z" />
    <glyph glyph-name="afii10085" unicode="&#x443;" horiz-adv-x="408" 
d="M345 466h63l-166 -540c-28 -92 -70 -146 -145 -146c-33 0 -65 15 -86 37l21 34c14 -8 37 -19 61 -19c47 0 72 47 90 109l17 59h-41l-159 466h66l147 -428z" />
    <glyph glyph-name="B" unicode="B" horiz-adv-x="558" 
d="M486 527c0 -141 -116 -149 -116 -149v-3s148 -15 148 -173c0 -127 -62 -202 -242 -202h-226v700h204c174 0 232 -74 232 -173zM113 640v-241h155c84 0 153 44 153 128c0 83 -55 113 -167 113h-141zM276 61c98 0 173 11 173 141c0 100 -70 136 -160 136h-176v-277h163z
" />
    <glyph glyph-name="H" unicode="H" horiz-adv-x="595" 
d="M481 391v309h64v-700h-64v330h-368v-330h-63v700h63v-309h368z" />
    <glyph glyph-name="question" unicode="?" horiz-adv-x="432" 
d="M236 36c0 -27 -23 -49 -51 -49s-51 22 -51 49s23 49 51 49s51 -22 51 -49zM412 512c0 -202 -200 -180 -200 -370h-54c0 229 184 193 184 367c0 88 -53 141 -150 141c-85 0 -157 -56 -157 -56l-25 42s80 75 195 75c127 0 207 -75 207 -199z" />
    <glyph glyph-name="afii10023" unicode="&#x401;" horiz-adv-x="492" 
d="M462 0h-412v700h408v-61h-345v-247h294v-61h-294v-270h349v-61zM212 801c0 -23 -19 -41 -42 -41c-24 0 -43 18 -43 41s19 41 43 41c23 0 42 -18 42 -41zM386 801c0 -23 -19 -41 -43 -41c-23 0 -43 18 -43 41s20 41 43 41c24 0 43 -18 43 -41z" />
    <glyph glyph-name="afii61352" unicode="&#x2116;" horiz-adv-x="996" 
d="M558 0h-71l-374 598v-598h-63v700h71l374 -598v598h63v-700zM790 711c90 0 176 -71 176 -208s-88 -207 -179 -207c-90 0 -176 70 -176 207s88 208 179 208zM787 351c71 0 114 41 114 152s-46 152 -111 152c-62 0 -114 -41 -114 -152s43 -152 111 -152zM631 250h315v-61
h-315v61z" />
    <glyph glyph-name="less" unicode="&#x3c;" horiz-adv-x="510" 
d="M20 285l470 242v-66l-390 -201l390 -201v-66l-470 242v50z" />
    <glyph glyph-name="greater" unicode="&#x3e;" horiz-adv-x="510" 
d="M20 527l470 -242v-50l-470 -242v66l390 201l-390 201v66z" />
    <glyph glyph-name="guilsinglleft" unicode="&#x2039;" horiz-adv-x="510" 
d="M20 285l470 242v-66l-390 -201l390 -201v-66l-470 242v50z" />
    <glyph glyph-name="guilsinglright" unicode="&#x203a;" horiz-adv-x="510" 
d="M20 527l470 -242v-50l-470 -242v66l390 201l-390 201v66z" />
    <glyph glyph-name="colon" unicode=":" horiz-adv-x="162" 
d="M132 36c0 -27 -22 -49 -51 -49c-28 0 -51 22 -51 49s23 49 51 49c29 0 51 -22 51 -49zM132 429c0 -27 -22 -49 -51 -49c-28 0 -51 22 -51 49s23 49 51 49c29 0 51 -22 51 -49z" />
    <glyph glyph-name="semicolon" unicode=";" 
d="M132 429c0 -27 -22 -49 -51 -49c-28 0 -51 22 -51 49s23 49 51 49c29 0 51 -22 51 -49zM76 -13c-26 2 -46 23 -46 49c0 27 23 49 51 49s51 -22 51 -49c2 -18 -1 -38 -8 -59c-15 -49 -64 -86 -64 -86l-24 22s32 32 40 74z" />
    <glyph glyph-name="quotedbl" unicode="&#x22;" horiz-adv-x="278" 
d="M110 394h-39s-21 96 -21 306h60v-306zM207 394h-39v306h60c0 -210 -21 -306 -21 -306z" />
    <glyph glyph-name="quotesingle" unicode="'" horiz-adv-x="161" 
d="M108 394h-55l-3 306h61z" />
    <glyph glyph-name="section" unicode="&#xa7;" horiz-adv-x="432" 
d="M392 316c0 -46 -19 -80 -47 -104c19 -21 32 -49 32 -88c0 -89 -77 -135 -168 -135c-113 0 -166 44 -166 44l15 33s65 -24 133 -24c100 0 127 42 127 86c0 135 -278 72 -278 259c0 47 18 81 46 104c-19 21 -31 49 -31 88c0 94 79 132 169 132c78 0 145 -31 145 -31
l-12 -34s-57 14 -120 14c-65 0 -123 -19 -123 -78c0 -135 278 -79 278 -266zM333 320c0 96 -122 96 -204 139c-18 -18 -30 -41 -30 -69c0 -95 118 -99 200 -143c20 18 34 42 34 73z" />
    <glyph glyph-name="asciicircum" unicode="^" horiz-adv-x="350" 
d="M150 700h50l150 -240h-66l-109 175l-109 -175h-66z" />
    <glyph glyph-name="underscore" unicode="_" horiz-adv-x="300" 
d="M0 0h300v-61h-300v61z" />
    <glyph glyph-name="slash" unicode="/" horiz-adv-x="393" 
d="M393 700l-330 -700h-63l330 700h63z" />
    <glyph glyph-name="backslash" unicode="\" horiz-adv-x="393" 
d="M330 0l-330 700h63l330 -700h-63z" />
    <glyph glyph-name="numbersign" unicode="#" horiz-adv-x="675" 
d="M76 500h144l52 200h63l-52 -200h185l52 200h63l-52 -200h134v-61h-149l-46 -178h129v-61h-145l-51 -200h-63l51 200h-185l-51 -200h-63l51 200h-133v61h149l46 178h-129v61zM268 439l-46 -178h185l46 178h-185z" />
    <glyph glyph-name="perthousand" unicode="&#x2030;" horiz-adv-x="1237" 
d="M209 711c90 0 176 -71 176 -208s-88 -207 -179 -207c-90 0 -176 70 -176 207s88 208 179 208zM206 351c71 0 114 41 114 152s-46 152 -111 152c-62 0 -114 -41 -114 -152s43 -152 111 -152zM635 402c91 0 177 -71 177 -208s-89 -207 -179 -207s-176 70 -176 207
s88 208 178 208zM633 42c71 0 114 41 114 152s-46 152 -112 152c-61 0 -113 -41 -113 -152s42 -152 111 -152zM722 700l-528 -700h-75l529 700h74zM1030 403c91 0 177 -71 177 -208s-89 -207 -179 -207s-176 70 -176 207s88 208 178 208zM1028 43c71 0 114 41 114 152
s-46 152 -112 152c-61 0 -113 -41 -113 -152s42 -152 111 -152z" />
    <glyph glyph-name="grave" unicode="`" horiz-adv-x="221" 
d="M221 500h-61l-160 200h87z" />
    <glyph glyph-name="afii10101" unicode="&#x454;" horiz-adv-x="390" 
d="M165 478c107 0 195 -83 195 -235c0 -166 -91 -254 -198 -254c-91 0 -142 41 -142 41l13 37s45 -27 119 -27c90 0 137 71 143 181h-211v49c114 0 179 -8 211 -14c-4 107 -61 170 -145 170c-63 0 -113 -26 -113 -26l-13 37s54 41 141 41z" />
    <glyph glyph-name="afii10105" unicode="&#x458;" horiz-adv-x="195" 
d="M78 0v466h61v-466c0 -77 -2 -223 -152 -231l-7 38c70 19 98 66 98 193zM145 579c0 -20 -16 -35 -36 -35c-21 0 -37 15 -37 35c0 19 16 35 37 35c20 0 36 -16 36 -35z" />
    <glyph glyph-name="afii10054" unicode="&#x405;" horiz-adv-x="533" 
d="M477 666l-14 -43s-81 27 -173 27c-97 0 -179 -28 -179 -123c0 -84 82 -107 169 -135c142 -47 223 -95 223 -217c0 -120 -94 -188 -230 -188c-167 0 -243 65 -243 65l20 42s95 -46 196 -46c148 0 187 61 187 133c0 73 -60 106 -171 143c-110 37 -220 76 -220 199
c0 122 94 188 227 188c116 0 208 -45 208 -45z" />
    <glyph glyph-name="afii10102" unicode="&#x455;" horiz-adv-x="394" 
d="M346 447l-12 -34s-57 14 -120 14c-65 0 -123 -13 -123 -77c0 -47 53 -59 113 -77c96 -30 160 -50 160 -149c0 -89 -77 -135 -168 -135c-113 0 -166 44 -166 44l15 33s65 -24 133 -24c100 0 127 37 127 86c0 50 -38 66 -114 85c-76 20 -159 48 -159 134
c0 94 79 131 169 131c78 0 145 -31 145 -31z" />
    <glyph glyph-name="afii10055" unicode="&#x406;" 
d="M113 700v-700h-63v700h63z" />
    <glyph glyph-name="afii10103" unicode="&#x456;" horiz-adv-x="173" 
d="M56 466h61v-466h-61v466zM123 579c0 -20 -16 -35 -36 -35s-37 15 -37 35c0 19 17 35 37 35s36 -16 36 -35z" />
    <glyph glyph-name="degree" unicode="&#xb0;" horiz-adv-x="395" 
d="M199 711c90 0 176 -71 176 -208s-88 -207 -179 -207c-90 0 -176 70 -176 207s88 208 179 208zM196 351c71 0 114 41 114 152s-46 152 -111 152c-62 0 -114 -41 -114 -152s43 -152 111 -152z" />
    <glyph glyph-name="braceleft" unicode="{" horiz-adv-x="299" 
d="M30 248v44c36 0 84 20 84 97v154c0 109 45 157 125 157h55v-50h-48c-38 0 -69 -17 -69 -107v-141c0 -118 -66 -132 -66 -132s66 -14 66 -132v-141c0 -90 31 -107 69 -107h48v-50h-55c-80 0 -125 48 -125 157v154c0 77 -48 97 -84 97z" />
    <glyph glyph-name="braceright" unicode="}" horiz-adv-x="299" 
d="M269 292v-44c-36 0 -84 -20 -84 -97v-154c0 -109 -45 -157 -125 -157h-55v50h48c38 0 69 17 69 107v141c0 118 66 132 66 132s-66 14 -66 132v141c0 90 -31 107 -69 107h-48v50h55c80 0 125 -48 125 -157v-154c0 -77 48 -97 84 -97z" />
    <glyph glyph-name="bar" unicode="|" 
d="M113 770v-840h-63v840h63z" />
    <glyph glyph-name="afii10053" unicode="&#x404;" horiz-adv-x="557" 
d="M243 711c128 0 274 -63 274 -354c0 -273 -132 -370 -273 -370c-139 0 -224 68 -224 68l19 39s77 -46 182 -46c138 0 218 86 224 281h-319v60h319c-8 205 -99 261 -225 261c-85 0 -158 -40 -158 -40l-19 39s85 62 200 62z" />
    <glyph glyph-name="endash" unicode="&#x2013;" horiz-adv-x="548" 
d="M20 291h508v-61h-508v61z" />
    <glyph glyph-name="hyphen.001" horiz-adv-x="340" 
d="M20 291h300v-61h-300v61z" />
    <glyph glyph-name="emdash" unicode="&#x2014;" horiz-adv-x="670" 
d="M20 291h630v-61h-630v61z" />
    <glyph glyph-name="quotedblright" unicode="&#x201d;" horiz-adv-x="276" 
d="M113 394h-39s-24 76 -24 306h63v-306zM226 700v-306h-58v306h58z" />
    <glyph glyph-name="quotedblleft" unicode="&#x201c;" horiz-adv-x="279" 
d="M76 700h34v-306h-60c1 229 26 306 26 306zM168 700h61v-306h-61v306z" />
    <glyph glyph-name="quoteleft" unicode="&#x2018;" horiz-adv-x="160" 
d="M76 700h34v-306h-60c1 229 26 306 26 306z" />
    <glyph glyph-name="quoteright" unicode="&#x2019;" 
d="M113 394h-39s-24 76 -24 306h63v-306z" />
    <glyph glyph-name="quotedblbase" unicode="&#x201e;" horiz-adv-x="276" 
d="M113 -176h-39s-24 76 -24 306h63v-306zM226 130v-306h-58v306h58z" />
    <glyph glyph-name="quotesinglbase" unicode="&#x201a;" 
d="M113 -176h-39s-24 76 -24 306h63v-306z" />
    <glyph glyph-name="ellipsis" unicode="&#x2026;" horiz-adv-x="566" 
d="M132 36c0 -27 -22 -49 -51 -49c-28 0 -51 22 -51 49s23 49 51 49c29 0 51 -22 51 -49zM334 36c0 -27 -22 -49 -51 -49c-28 0 -51 22 -51 49s23 49 51 49c29 0 51 -22 51 -49zM536 36c0 -27 -22 -49 -51 -49c-28 0 -51 22 -51 49s23 49 51 49c29 0 51 -22 51 -49z" />
    <glyph glyph-name="afii10057" unicode="&#x408;" horiz-adv-x="226" 
d="M113 219v481h63v-481c0 -77 -18 -224 -169 -232l-7 46c70 20 113 59 113 186z" />
    <glyph glyph-name="afii10062" unicode="&#x40e;" horiz-adv-x="573" 
d="M483 700h70l-221 -575c-33 -86 -72 -138 -146 -138c-36 0 -72 17 -97 41l18 37s34 -20 70 -20c37 0 64 19 93 98l1 5l-251 552h70l213 -469zM386 857h61c0 -65 -51 -129 -154 -129c-117 0 -155 64 -155 129h61c0 -36 25 -76 94 -76c65 0 93 41 93 76z" />
    <glyph glyph-name="afii10110" unicode="&#x45e;" horiz-adv-x="408" 
d="M345 466h63l-166 -540c-28 -92 -70 -146 -145 -146c-33 0 -65 15 -86 37l21 34c14 -8 37 -19 61 -19c47 0 72 47 90 109l17 59h-41l-159 466h66l147 -428zM283 624h53c0 -56 -43 -112 -130 -112c-100 0 -130 56 -130 112h52c0 -31 20 -69 78 -69s77 39 77 69z" />
    <glyph glyph-name="brokenbar" unicode="&#xa6;" 
d="M113 770v-360h-63v360h63zM113 -70h-63v360h63v-360z" />
    <glyph glyph-name="dagger" unicode="&#x2020;" horiz-adv-x="403" 
d="M20 521h150v249h63v-249h150v-61h-150v-530h-63v530h-150v61z" />
    <glyph glyph-name="daggerdbl" unicode="&#x2021;" horiz-adv-x="403" 
d="M20 550h150v220h63v-220h150v-61h-150v-278h150v-61h-150v-220h-63v220h-150v61h150v278h-150v61z" />
    <glyph glyph-name="afii10056" unicode="&#x407;" 
d="M113 700v-700h-63v700h63zM37 801c0 -23 -19 -41 -42 -41c-24 0 -43 18 -43 41s19 41 43 41c23 0 42 -18 42 -41zM211 801c0 -23 -19 -41 -43 -41c-23 0 -43 18 -43 41s20 41 43 41c24 0 43 -18 43 -41z" />
    <glyph glyph-name="afii10104" unicode="&#x457;" horiz-adv-x="173" 
d="M56 466h61v-466h-61v466zM42 553c0 -23 -19 -41 -42 -41c-24 0 -43 18 -43 41s19 41 43 41c23 0 42 -18 42 -41zM216 553c0 -23 -19 -41 -43 -41c-23 0 -43 18 -43 41s20 41 43 41c24 0 43 -18 43 -41z" />
    <glyph glyph-name="afii10050" unicode="&#x490;" horiz-adv-x="464" 
d="M444 800v-161h-331v-639h-63v700h331v100h63z" />
    <glyph glyph-name="afii10098" unicode="&#x491;" horiz-adv-x="352" 
d="M332 555v-141h-221v-414h-61v466h221v89h61z" />
    <glyph glyph-name="afii10061" unicode="&#x40c;" horiz-adv-x="539" 
d="M415 190c26 -92 53 -141 114 -156l-10 -47c-87 0 -140 46 -176 203c-28 123 -60 143 -135 143h-94v-333h-64v700h64v-305h86c74 0 102 8 130 129c37 160 92 187 178 187l5 -43c-62 -14 -85 -53 -111 -144c-26 -93 -48 -136 -99 -156c68 -24 85 -81 112 -178zM271 700h-61
l100 150h87z" />
    <glyph glyph-name="afii10052" unicode="&#x403;" horiz-adv-x="464" 
d="M50 700h394v-61h-331v-639h-63v700zM270 730h-61l100 150h87z" />
    <glyph glyph-name="afii10109" unicode="&#x45c;" horiz-adv-x="415" 
d="M320 144c13 -72 43 -92 85 -104l-11 -45c-73 0 -110 25 -138 149c-16 75 -50 77 -103 77h-42v-221h-61v466h61v-194h52c43 0 80 10 92 67c26 120 66 133 128 133l8 -40c-33 -11 -60 -18 -72 -94c-4 -29 -17 -51 -35 -68c-22 -18 -42 -21 -42 -21v-2s22 -3 41 -22
s30 -46 37 -81zM226 476h-61l100 150h87z" />
    <glyph glyph-name="afii10100" unicode="&#x453;" horiz-adv-x="352" 
d="M50 0v466h282v-52h-221v-414h-61zM226 506h-61l100 150h87z" />
    <glyph glyph-name="afii10145" unicode="&#x40f;" horiz-adv-x="567" 
d="M50 0v700h64v-639h340v639h63v-700h-200l-5 -183h-57l-5 183h-200z" />
    <glyph glyph-name="afii10193" unicode="&#x45f;" horiz-adv-x="454" 
d="M258 0l-6 -141h-50l-6 141h-146v466h61v-413h232v413h61v-466h-146z" />
    <glyph glyph-name="uni00AD" unicode="&#xad;" horiz-adv-x="340" 
d="M20 291h300v-61h-300v61z" />
    <glyph glyph-name="logicalnot" unicode="&#xac;" horiz-adv-x="434" 
d="M414 352v-161h-63v100h-331v61h394z" />
    <glyph glyph-name="afii10058" unicode="&#x409;" horiz-adv-x="965" 
d="M665 0h-174v639h-273c0 -474 -26 -632 -208 -651l-10 46c115 33 154 133 154 666h400v-288h111c179 0 270 -70 270 -204c0 -138 -97 -208 -270 -208zM554 61h111c98 0 201 17 201 147c0 131 -99 144 -201 144h-111v-291z" />
    <glyph glyph-name="afii10059" unicode="&#x40a;" horiz-adv-x="956" 
d="M656 0h-175v352h-368v-352h-63v700h63v-287h368v287h64v-288h111c179 0 270 -70 270 -204c0 -138 -97 -208 -270 -208zM545 61h111c98 0 201 17 201 147c0 131 -99 144 -201 144h-111v-291z" />
    <glyph glyph-name="afii10106" unicode="&#x459;" horiz-adv-x="707" 
d="M505 282c112 0 172 -53 172 -142c0 -86 -63 -140 -172 -140h-160v414h-179c0 -314 -39 -404 -154 -419l-12 45c77 21 105 96 105 426h301v-184h99zM406 52h99c85 0 112 44 112 88c0 43 -25 91 -112 91h-99v-179z" />
    <glyph glyph-name="afii10107" unicode="&#x45a;" horiz-adv-x="698" 
d="M496 282c112 0 172 -53 172 -142c0 -86 -63 -140 -172 -140h-160v231h-226v-231h-60v466h60v-180h226v180h61v-184h99zM397 52h99c85 0 112 44 112 88c0 43 -25 91 -112 91h-99v-179z" />
    <glyph glyph-name="mu" unicode="&#xb5;" horiz-adv-x="457" 
d="M206 -11c-42 0 -73 18 -96 48v-254h-60v683h60v-231c0 -106 27 -190 100 -190c50 0 94 39 136 94v327h61v-466h-49s-5 36 -9 71c-28 -34 -80 -82 -143 -82z" />
    <glyph glyph-name="mu" unicode="&#x3bc;" horiz-adv-x="457" 
d="M206 -11c-42 0 -73 18 -96 48v-254h-60v683h60v-231c0 -106 27 -190 100 -190c50 0 94 39 136 94v327h61v-466h-49s-5 36 -9 71c-28 -34 -80 -82 -143 -82z" />
    <glyph glyph-name="afii10108" unicode="&#x45b;" horiz-adv-x="487" 
d="M447 269v-269h-61v269c0 78 -14 120 -83 120c-52 0 -103 -36 -147 -88v-301h-61v531h-85v53h85v116h61v-116h117v-53c-51 0 -89 2 -117 6v-171c32 33 88 74 152 74c113 0 139 -73 139 -171z" />
    <glyph glyph-name="afii10099" unicode="&#x452;" horiz-adv-x="487" 
d="M386 130v139c0 78 -14 120 -83 120c-52 0 -103 -36 -147 -88v-301h-61v531h-85v53h85v116h61v-116h117v-53c-51 0 -89 2 -117 6v-171c32 33 88 74 152 74c113 0 139 -73 139 -171v-139c0 -77 -2 -223 -152 -231l-7 38c70 19 98 66 98 193z" />
    <glyph glyph-name="afii10060" unicode="&#x40b;" horiz-adv-x="650" 
d="M208 358v-358h-64v700h64v-292s82 33 200 33c144 0 202 -81 202 -202v-239h-64v239c0 95 -45 146 -143 146c-128 0 -195 -27 -195 -27zM0 700h374v-61h-374v61z" />
    <glyph glyph-name="afii10051" unicode="&#x402;" horiz-adv-x="640" 
d="M0 700h374v-61h-374v61zM546 130v109c0 95 -45 146 -143 146c-128 0 -195 -27 -195 -27v-358h-64v700h64v-292s82 33 200 33c144 0 202 -81 202 -202v-109c0 -77 -5 -223 -155 -231l-7 38c70 19 98 66 98 193z" />
    <glyph glyph-name="currency" unicode="&#xa4;" horiz-adv-x="553" 
d="M10 250l10 49h50v25h-60l10 49h50v327h184c172 0 269 -66 269 -191c0 -118 -97 -185 -269 -185h-117v-25h123c110 0 147 -30 192 -119l91 -180h-71l-85 168c-32 63 -67 82 -127 82h-123v-250h-67v250h-60zM137 373h117c101 0 200 17 200 136c0 116 -102 130 -200 130
h-117v-266z" />
    <glyph glyph-name="guillemotright" unicode="&#xbb;" horiz-adv-x="382" 
d="M54 2l-34 20l130 223l-126 217l29 17s53 -39 168 -238c-115 -199 -167 -239 -167 -239zM291 236l-137 237l34 20s59 -54 174 -253c-115 -198 -176 -252 -176 -252l-28 17z" />
    <glyph glyph-name="afii10017" unicode="&#x410;" horiz-adv-x="569" 
d="M481 0l-73 212h-257l-67 -212h-64l222 700h64l243 -700h-68zM169 269h219l-114 330z" />
    <glyph glyph-name="asciitilde" unicode="~" horiz-adv-x="517" 
d="M246 232c-43 19 -80 30 -112 30s-59 -12 -82 -40l-32 21c31 59 77 78 124 78c46 0 92 -18 127 -33c43 -19 80 -30 112 -30s59 12 82 40l32 -21c-31 -59 -77 -78 -124 -78c-46 0 -92 18 -127 33z" />
    <glyph glyph-name="periodcentered" unicode="&#xb7;" horiz-adv-x="250" 
d="M176 351c0 -27 -22 -49 -51 -49c-28 0 -51 22 -51 49s23 49 51 49c29 0 51 -22 51 -49z" />
    <glyph glyph-name="bullet" unicode="&#x2022;" horiz-adv-x="320" 
d="M270 350c0 -65 -45 -110 -110 -110s-110 45 -110 110s45 110 110 110s110 -45 110 -110z" />
    <glyph glyph-name="apple" horiz-adv-x="2345" 
d="M1355 160c0 -95 -75 -170 -170 -170s-170 75 -170 170s75 170 170 170s170 -75 170 -170zM850 515c0 -95 -75 -170 -170 -170s-170 75 -170 170s75 170 170 170s170 -75 170 -170zM1345 355h-320l160 320zM820 675h320l-160 -320zM485 355h-320l320 320v-320zM2025 675
h320l-160 -320zM340 0h-320v320zM2020 0h-320l160 320zM2200 160c0 -95 -75 -170 -170 -170v340c95 0 170 -75 170 -170zM1380 0v295l285 -295h-285zM1690 320v-295l-285 295h285zM2015 675v-295l-285 295h285zM1355 355v295l285 -295h-285zM1665 675v-295l-285 295h285z
M1705 355v295l285 -295h-285zM340 0v160l320 -160h-320zM990 320v-320h-160zM340 320h320l-320 -160v160zM670 320l160 -320h-160v320z" />
    <glyph glyph-name="_0127" horiz-adv-x="250" 
 />
    <glyph glyph-name="_0152" horiz-adv-x="250" 
 />
    <glyph glyph-name="uni00A0" unicode="&#xa0;" horiz-adv-x="250" 
 />
    <glyph glyph-name="parenleft" unicode="(" horiz-adv-x="260" 
d="M109 267c0 -283 146 -413 146 -413l-24 -30s-191 100 -191 443s191 443 191 443l24 -30s-146 -130 -146 -413z" />
    </font>
</defs>
</svg>
