<?xml version="1.0" standalone="no"?>
<!DOCTYPE svg PUBLIC "-//W3C//DTD SVG 1.1//EN" "http://www.w3.org/Graphics/SVG/1.1/DTD/svg11.dtd" >
<svg>
<metadata>
Created by FontForge 20110222 at Mon Aug 25 03:03:32 2014
 By Orthosie Webhosting
Type Market design 1992
</metadata>
<defs>
<font id="Taurus-Light" horiz-adv-x="551" >
  <font-face 
    font-family="Taurus-Light"
    font-weight="400"
    font-stretch="normal"
    units-per-em="1000"
    panose-1="0 0 0 0 0 0 0 0 0 0"
    ascent="800"
    descent="-200"
    x-height="483"
    cap-height="720"
    bbox="-270 -243 1165 898"
    underline-thickness="50"
    underline-position="-75"
    unicode-range="U+0020-2122"
  />
<missing-glyph horiz-adv-x="757" 
d="M47 0v757h663v-757h-663zM663 47v663h-569v-663h569z" />
    <glyph glyph-name=".notdef" horiz-adv-x="757" 
d="M47 0v757h663v-757h-663zM663 47v663h-569v-663h569z" />
    <glyph glyph-name=".null" horiz-adv-x="0" 
 />
    <glyph glyph-name="nonmarkingreturn" horiz-adv-x="411" 
 />
    <glyph glyph-name="space" unicode=" " horiz-adv-x="411" 
 />
    <glyph glyph-name="exclam" unicode="!" horiz-adv-x="275" 
d="M99 34q0 17 11 28t28 11q16 0 27 -11t11 -28q0 -16 -10.5 -27.5t-27.5 -11.5t-28 11t-11 28zM116 145v588h43v-588h-43z" />
    <glyph glyph-name="quotedbl" unicode="&#x22;" horiz-adv-x="277" 
d="M94 721v-278h-44v278h44zM227 721v-278h-44v278h44z" />
    <glyph glyph-name="numbersign" unicode="#" horiz-adv-x="793" 
d="M461 732l-88 -251h136l89 251h56l-88 -251h162l-16 -45h-163l-50 -142h175l-15 -45h-176l-88 -249h-57l89 249h-136l-90 -249h-55l87 249h-168l16 45h169l50 142h-181l14 45h184l88 251h56zM493 436h-136l-50 -142h135z" />
    <glyph glyph-name="dollar" unicode="$" 
d="M263 -29v107h-178v38h178v261q-178 46 -178 165q0 67 47 108t131 41v56h36v-56h155v-38h-155v-244q98 -30 144 -73t46 -108q0 -72 -48 -111t-139 -39l-3 -107h-36zM263 420v233h-6q-63 0 -98 -29t-35 -78q0 -90 139 -126zM299 116h10q65 0 102.5 30t37.5 80
q0 49 -36 81.5t-114 56.5v-248z" />
    <glyph glyph-name="percent" unicode="%" horiz-adv-x="840" 
d="M159 -13l477 738h43l-475 -738h-45zM49 576q0 65 45.5 110.5t110.5 45.5q64 0 109 -45t45 -111q0 -64 -44 -109t-110 -45q-65 0 -110.5 44.5t-45.5 109.5zM91 576q0 -48 33 -81t81 -33t80 33t32 81t-32.5 81.5t-79.5 33.5t-80.5 -33.5t-33.5 -81.5zM479 154q0 64 45 110
t109 46t110 -46t46 -110t-45.5 -109.5t-110.5 -45.5t-109.5 45.5t-44.5 109.5zM520 154q0 -48 33 -81t80 -33q48 0 81 33t33 81t-33 81t-81 33q-47 0 -80 -33t-33 -81z" />
    <glyph glyph-name="ampersand" unicode="&#x26;" horiz-adv-x="692" 
d="M205 494q-108 -89 -108 -206q0 -35 9 -68t26 -64q36 -60 93 -93t125 -33q100 0 182 78zM180 523l-28 36q-26 34 -26 65q0 41 31.5 68.5t86.5 27.5h282v-38h-277q-78 0 -78 -58q0 -17 9 -34q6 -12 25 -35l353 -418q45 65 45 148q0 121 -94 200l25 30q112 -91 112 -231
q0 -97 -60 -179l90 -105h-53l-63 75q-90 -86 -209 -86q-64 0 -117 21t-93 62q-87 89 -87 212q0 146 126 239z" />
    <glyph glyph-name="quotesingle" unicode="'" horiz-adv-x="143" 
d="M94 721v-278h-44v278h44z" />
    <glyph glyph-name="parenleft" unicode="(" horiz-adv-x="297" 
d="M279 724q-109 -112 -161 -227q-46 -102 -46 -206q0 -132 72 -260q53 -94 135 -170l-25 -15q-80 49 -153.5 191t-73.5 254q0 139 59 253q54 105 168 206z" />
    <glyph glyph-name="parenright" unicode=")" horiz-adv-x="319" 
d="M27 724q109 -112 161 -227q46 -102 46 -206q0 -132 -72 -260q-53 -94 -135 -170l25 -15q80 49 153.5 191t73.5 254q0 139 -59 253q-54 105 -168 206z" />
    <glyph glyph-name="asterisk" unicode="*" horiz-adv-x="507" 
d="M272 362h-37l5 160l-138 -83l-18 31l140 76l-140 78l18 31l139 -84l-6 161h37l-6 -161l139 84l18 -31l-142 -76l142 -78l-18 -32l-138 84z" />
    <glyph glyph-name="plus" unicode="+" horiz-adv-x="858" 
d="M449 613v-286h281v-41h-281v-286h-41v286h-281v41h281v286h41z" />
    <glyph glyph-name="comma" unicode="," horiz-adv-x="275" 
d="M67 -84l47 162h58l-58 -162h-47z" />
    <glyph glyph-name="hyphen" unicode="-" horiz-adv-x="858" 
d="M730 328v-41h-603v41h603z" />
    <glyph glyph-name="period" unicode="." horiz-adv-x="275" 
d="M99 34q0 16 11 27t28 11t27.5 -10.5t10.5 -27.5t-10 -28t-28 -11q-17 0 -28 11t-11 28z" />
    <glyph glyph-name="slash" unicode="/" horiz-adv-x="280" 
d="M262 732h46l-274 -828h-46z" />
    <glyph glyph-name="zero" unicode="0" horiz-adv-x="798" 
d="M399 738q156 0 260.5 -109.5t104.5 -268.5q0 -158 -105 -268t-260 -110q-156 0 -261 110t-105 268t105 268t261 110zM399 693q-130 0 -225.5 -100.5t-95.5 -232.5t95.5 -232.5t225.5 -100.5t225 100t95 233t-95 233t-225 100z" />
    <glyph glyph-name="one" unicode="1" horiz-adv-x="112" 
d="M32 0v720h45v-720h-45z" />
    <glyph glyph-name="two" unicode="2" 
d="M512 0h-382q-45 0 -64.5 10t-19.5 40q0 21 13 38q9 11 37 34l264 213q53 43 78 85.5t25 95.5q0 78 -51 128t-131 50q-81 0 -133 -51t-52 -128q0 -82 51 -131t145 -49l-39 -33q-96 15 -149 70t-53 136q0 98 64.5 161.5t165.5 63.5q98 0 162.5 -61.5t64.5 -154.5
q0 -66 -34 -120q-30 -48 -100 -105l-263 -214q-12 -12 -12 -21q0 -17 22 -17h391v-40z" />
    <glyph glyph-name="three" unicode="3" 
d="M63 -1v41h206q188 0 188 172q0 78 -46.5 123.5t-127.5 45.5h-140v28l248 241q5 6 9 11t4 9q0 11 -24 11h-309v38h320q61 0 61 -43q0 -21 -17 -36l-228 -220h66q230 0 230 -208q0 -100 -61.5 -156.5t-172.5 -56.5h-206z" />
    <glyph glyph-name="four" unicode="4" 
d="M377 0v204h-284q-67 0 -67 42q0 13 3 21t14 26l268 440h49l-278 -459q-6 -11 -6 -18q0 -14 30 -14h271v130h45v-130h118v-38h-118v-204h-45z" />
    <glyph glyph-name="five" unicode="5" 
d="M68 -1v41h193q92 0 141 45t49 126q0 78 -47 124t-130 46h-187v338h362v-38h-316v-261h134q110 0 170.5 -55.5t60.5 -152.5q0 -96 -61.5 -154.5t-167.5 -58.5h-201z" />
    <glyph glyph-name="six" unicode="6" 
d="M221 477q38 8 68 8q105 0 170 -67t65 -173q0 -109 -71 -182t-175 -73t-173 71q-74 77 -74 184q0 52 21 103q17 42 57 101l183 271h50l-204 -305q-62 -94 -62 -168q0 -94 58 -155t144 -61q84 0 142.5 60.5t58.5 150.5q0 93 -54 149t-144 56q-35 0 -92 -17z" />
    <glyph glyph-name="seven" unicode="7" 
d="M189 -1l286 645q5 12 5 24q0 13 -24 13h-426v38h429q67 0 67 -47q0 -18 -10 -39l-279 -634h-48z" />
    <glyph glyph-name="eight" unicode="8" 
d="M81 212q0 -76 56 -129t138 -53q83 0 138.5 52.5t55.5 129.5q0 75 -56 128t-138 53q-80 0 -137 -53t-57 -128zM129 563q0 -57 42 -96t104 -39t104.5 39.5t42.5 95.5q0 57 -41 95t-106 38q-64 0 -105 -38t-41 -95zM202 414q-114 40 -114 152q0 70 53 118t134 48
t134.5 -47.5t53.5 -118.5q0 -54 -29 -93t-85 -59q79 -25 120.5 -78.5t41.5 -130.5q0 -91 -68.5 -154.5t-167.5 -63.5q-98 0 -167 64t-69 154q0 157 163 209z" />
    <glyph glyph-name="nine" unicode="9" 
d="M331 243q-38 -8 -68 -8q-105 0 -170 67t-65 173q0 109 70 182t175 73t174 -71q73 -76 73 -184q0 -51 -19.5 -99t-57.5 -105l-183 -271h-50l203 305q62 94 62 168q0 94 -58 155t-144 61q-85 0 -142.5 -60.5t-57.5 -150.5q0 -92 53.5 -148.5t143.5 -56.5q36 0 93 17z" />
    <glyph glyph-name="colon" unicode=":" horiz-adv-x="300" 
d="M111 359q0 16 11.5 27.5t27.5 11.5t27 -11.5t11 -27.5q0 -17 -10.5 -27.5t-27.5 -10.5t-28 10t-11 28zM111 34q0 16 11 27t28 11t27.5 -10.5t10.5 -27.5q0 -16 -10.5 -27.5t-27.5 -11.5t-28 11t-11 28z" />
    <glyph glyph-name="semicolon" unicode=";" horiz-adv-x="301" 
d="M84 -84l47 163h58l-58 -163h-47zM111 359q0 17 11 28t28 11t28 -11t11 -28q0 -16 -11 -27t-28 -11q-16 0 -27.5 10.5t-11.5 27.5z" />
    <glyph glyph-name="less" unicode="&#x3c;" horiz-adv-x="858" 
d="M725 520l-526 -213l526 -213v-45l-593 243v30l593 244v-46z" />
    <glyph glyph-name="equal" unicode="=" horiz-adv-x="858" 
d="M730 418v-40h-603v40h603zM730 236v-40h-603v40h603z" />
    <glyph glyph-name="greater" unicode="&#x3e;" horiz-adv-x="858" 
d="M725 322v-30l-593 -243v45l526 213l-526 213v46z" />
    <glyph glyph-name="question" unicode="?" horiz-adv-x="484" 
d="M173 34q0 17 11 28t28 11t28 -11t11 -28q0 -16 -11.5 -27.5t-27.5 -11.5t-27.5 11.5t-11.5 27.5zM23 532q8 93 65 147t144 54q91 0 149.5 -58.5t58.5 -149.5q0 -88 -53.5 -142.5t-152.5 -66.5v-181h-43v223h14q87 0 138.5 46.5t51.5 121.5q0 74 -45 120t-119 46
q-70 0 -113 -41t-53 -119h-42z" />
    <glyph glyph-name="at" unicode="@" horiz-adv-x="774" 
d="M554 370v-147q0 -42 3 -53.5t18 -11.5q12 0 36 23q18 17 35 41q24 33 38 100q11 53 11 96q0 120 -91 200q-87 76 -207 76q-131 0 -221.5 -100.5t-90.5 -232.5q0 -149 98 -248t245 -99q68 0 128 32q68 36 128 114h40q-45 -86 -134 -135q-84 -46 -182 -46q-151 0 -250 97
q-113 111 -113 311q0 39 26 107q38 99 106 159q92 81 227 81q137 0 234 -87.5t97 -223.5q0 -51 -9 -95t-34 -87q-19 -43 -46 -73q-38 -42 -76 -42q-29 0 -38.5 17t-9.5 47v126v44q0 76 -41 126.5t-108 50.5q-65 0 -107 -51t-42 -126q0 -77 42 -127t107 -50q50 0 87 30.5
t52 78.5l-5 -67q-21 -39 -56.5 -58t-77.5 -19q-88 0 -137 67q-44 60 -44 151q0 96 58 154q52 52 123 52q87 0 138 -69q43 -58 43 -133z" />
    <glyph glyph-name="A" unicode="A" horiz-adv-x="566" 
d="M79 0h-45v517q0 101 71.5 161t178.5 60t176 -58q74 -62 74 -163v-517h-45v292h-410v-292zM489 333v163q0 89 -55.5 144.5t-149.5 55.5q-92 0 -148.5 -55.5t-56.5 -144.5v-163h410z" />
    <glyph glyph-name="B" unicode="B" horiz-adv-x="557" 
d="M542 219q0 -107 -67 -172t-180 -65q-106 0 -176 61q-75 65 -75 174v506h221q95 0 151 -29q74 -39 74 -128q0 -56 -27 -91q-19 -25 -57 -45q67 -28 104 -94q32 -57 32 -117zM89 681v-464q0 -68 63 -129t143 -61q84 0 141 51q61 55 61 141q0 71 -56 127q-60 60 -146 60
q-76 0 -121 -26q-54 -31 -77 -105l15 112q34 37 82.5 50.5t108.5 13.5q64 0 99 24q43 29 43 94q0 51 -48 81.5t-132 30.5h-176z" />
    <glyph glyph-name="C" unicode="C" horiz-adv-x="729" 
d="M402 693q-134 0 -230 -106q-91 -101 -91 -226q0 -129 94.5 -231.5t226.5 -102.5q83 0 155 44q63 39 109 105l24 -52q-55 -68 -119 -102q-74 -40 -168 -40q-166 0 -271 120q-96 110 -96 259q0 146 94 255q105 122 272 122q102 0 185 -50q66 -39 112 -105l-32 -42
q-39 64 -105 105q-75 47 -160 47z" />
    <glyph glyph-name="D" unicode="D" horiz-adv-x="798" 
d="M33 0v360q0 145 93 255q104 123 273 123q160 0 265 -114q100 -109 100 -267q0 -148 -98 -257q-106 -118 -267 -118q-85 0 -159 35q-63 30 -110 83l-24 128q37 -79 103 -132q85 -69 190 -69q133 0 228 103q92 99 92 230q0 130 -90 229q-95 104 -230 104t-230 -104
q-91 -99 -91 -229v-360h-45z" />
    <glyph glyph-name="E" unicode="E" horiz-adv-x="502" 
d="M477 720v-42h-392v-283h380v-42h-380v-208q0 -60 30 -81.5t102 -21.5h260v-42h-260q-100 0 -138.5 30t-38.5 115v575h437z" />
    <glyph glyph-name="F" unicode="F" horiz-adv-x="502" 
d="M40 0h45v353h380v42h-380v180q0 60 30 81.5t102 21.5h260v42h-260q-100 0 -138.5 -30t-38.5 -115v-575z" />
    <glyph glyph-name="G" unicode="G" horiz-adv-x="798" 
d="M33 360q0 148 96 258q105 120 270 120q77 0 156 -34t114 -87l-29 -42q-39 55 -105.5 86.5t-135.5 31.5q-123 0 -220 -96q-101 -100 -101 -237q0 -134 96.5 -233.5t224.5 -99.5t226 102q94 98 94 217h-487v42h532q0 -206 -126 -316q-103 -90 -239 -90q-157 0 -261.5 110.5
t-104.5 267.5z" />
    <glyph glyph-name="H" unicode="H" horiz-adv-x="580" 
d="M41 720h45v-329h408v329h45v-720h-45v349h-408v-349h-45v720z" />
    <glyph glyph-name="I" unicode="I" horiz-adv-x="112" 
d="M32 0v720h45v-720h-45z" />
    <glyph glyph-name="J" unicode="J" horiz-adv-x="488" 
d="M441 720v-532q0 -94 -60 -150t-149 -56t-141 50.5t-67 144.5l47 14q23 -86 61 -125t103 -39t113 48t48 113v532h45z" />
    <glyph glyph-name="K" unicode="K" horiz-adv-x="542" 
d="M44 720h45v-333l348 333h68l-290 -274q25 8 45.5 11.5t42.5 3.5q88 0 146.5 -56.5t58.5 -155.5v-249h-45v249q0 85 -54 129q-47 38 -123 38q-55 0 -108.5 -23t-88.5 -64v-329h-45v720z" />
    <glyph glyph-name="L" unicode="L" horiz-adv-x="437" 
d="M44 0v720h45v-678h338v-42h-383z" />
    <glyph glyph-name="M" unicode="M" horiz-adv-x="907" 
d="M864 0v544q0 90 -70 145q-63 49 -147 49q-85 0 -132 -36q-42 -32 -61 -98q-17 62 -67 98t-125 36q-94 0 -152 -47q-65 -52 -65 -147v-544h45v532q0 77 50 120.5t122 43.5q55 0 109 -46q61 -52 61 -118v-532h45v532q0 71 48.5 117.5t121.5 46.5q58 0 111 -43
q61 -50 61 -121v-532h45z" />
    <glyph glyph-name="N" unicode="N" horiz-adv-x="566" 
d="M79 0h-45v517q0 101 71.5 161t178.5 60t176 -58q74 -62 74 -163v-517h-45v496q0 85 -55 141q-58 59 -150 59t-148.5 -57.5t-56.5 -142.5v-496z" />
    <glyph glyph-name="O" unicode="O" horiz-adv-x="798" 
d="M399 738q156 0 260.5 -109.5t104.5 -268.5q0 -158 -105 -268t-260 -110q-156 0 -261 110t-105 268t105 268t261 110zM399 693q-130 0 -225.5 -100.5t-95.5 -232.5t95.5 -232.5t225.5 -100.5t225 100t95 233t-95 233t-225 100z" />
    <glyph glyph-name="P" unicode="P" horiz-adv-x="550" 
d="M282 235q-53 0 -98 20q-36 16 -63 42l-17 88q35 -51 69 -74q45 -31 109 -31q89 0 142.5 58.5t53.5 147.5q0 84 -54 144q-57 63 -142 63t-140.5 -61t-55.5 -160v-472h-45v486q0 108 70 180t176 72q103 0 171 -77q65 -73 65 -175t-64 -174q-69 -77 -177 -77z" />
    <glyph glyph-name="Q" unicode="Q" horiz-adv-x="798" 
d="M399 738q156 0 260.5 -109.5t104.5 -268.5q0 -158 -105 -268t-260 -110q-156 0 -261 110t-105 268t105 268t261 110zM399 693q-130 0 -225.5 -100.5t-95.5 -232.5q0 -133 96 -234q83 -88 176 -99q-34 14 -48 43t-14 67q0 58 32 97q36 44 100 44q16 0 34 -2.5t35 -7.5
l14 -39q-32 9 -61 9q-50 0 -81 -28t-31 -73q0 -37 37.5 -73.5t93.5 -36.5q82 17 160 98q98 102 98 235t-95 233t-225 100z" />
    <glyph glyph-name="R" unicode="R" horiz-adv-x="550" 
d="M282 235h-10l243 -197l-37 -38l-357 297l-17 88q35 -51 69 -74q45 -31 109 -31q89 0 142.5 58.5t53.5 147.5q0 84 -54 144q-57 63 -142 63t-140.5 -61t-55.5 -160v-472h-45v486q0 108 70 180t176 72q103 0 171 -77q65 -73 65 -175t-64 -174q-69 -77 -177 -77z" />
    <glyph glyph-name="S" unicode="S" horiz-adv-x="624" 
d="M625 719v-45h-85q-64 0 -96 -54q-36 -61 -88 -266.5t-114.5 -279.5t-184.5 -74h-60v45h72q84 0 137 68q60 77 102 258q48 210 102 283q48 65 135 65h80z" />
    <glyph glyph-name="T" unicode="T" horiz-adv-x="457" 
d="M15 678v42h430v-42h-193v-678h-45v678h-192z" />
    <glyph glyph-name="U" unicode="U" horiz-adv-x="566" 
d="M79 720h-45v-517q0 -101 71.5 -161t178.5 -60t176 58q74 62 74 163v517h-45v-496q0 -85 -56.5 -142.5t-148.5 -57.5t-148.5 57.5t-56.5 142.5v496z" />
    <glyph glyph-name="V" unicode="V" horiz-adv-x="582" 
d="M55 720l200 -646q3 -22 5.5 -34.5t13.5 -12.5q10 0 14.5 15.5t9.5 31.5l224 646h50l-233 -673q-10 -29 -28 -47t-37 -18q-45 0 -66 73l-201 665h48z" />
    <glyph glyph-name="W" unicode="W" horiz-adv-x="907" 
d="M45 720v-544q0 -90 70 -145q63 -49 147 -49q85 0 132 36q42 32 61 98q17 -62 67 -98t125 -36q94 0 152 47q65 52 65 147v544h-45v-532q0 -77 -52 -122q-48 -42 -120 -42q-55 0 -109 46q-61 52 -61 118v532h-45v-532q0 -71 -48.5 -117.5t-121.5 -46.5q-58 0 -111 43
q-61 50 -61 121v532h-45z" />
    <glyph glyph-name="X" unicode="X" horiz-adv-x="573" 
d="M33 201v8q0 76 34 118q29 35 87 54q-56 19 -86 55q-35 42 -35 104v180h45v-180q0 -73 58 -106q52 -30 151 -30q98 0 153.5 39t55.5 95v182h45v-187q0 -58 -35 -98q-31 -35 -86 -54q54 -18 85 -60q36 -48 36 -118v-203h-45v209q0 57 -57 102q-61 48 -152 48
q-98 0 -153.5 -39.5t-55.5 -110.5v-209h-45v201z" />
    <glyph glyph-name="Y" unicode="Y" horiz-adv-x="518" 
d="M440 720h45v-219q0 -102 -81 -159q-59 -42 -117 -42v-300h-45v300q-64 0 -121 43q-76 58 -76 166v211h44v-211q0 -78 55 -123q50 -41 121 -41q70 0 120 42q55 46 55 122v211z" />
    <glyph glyph-name="Z" unicode="Z" horiz-adv-x="510" 
d="M76 720h321q49 0 70 -15q17 -12 17 -35q0 -16 -9 -39q-4 -10 -12 -24l-373 -525q-8 -21 -8 -26q0 -8 5.5 -11.5t21.5 -3.5h386v-41h-419q-21 0 -33 16t-12 39q0 21 12 41l380 536q15 21 15 33q0 9 -10 11.5t-31 2.5h-321v41z" />
    <glyph glyph-name="bracketleft" unicode="[" horiz-adv-x="283" 
d="M235 -159v-29h-148v908h148v-29h-105v-850h105z" />
    <glyph glyph-name="backslash" unicode="\" horiz-adv-x="280" 
d="M-12 732h46l274 -828h-46z" />
    <glyph glyph-name="bracketright" unicode="]" horiz-adv-x="283" 
d="M48 -159h105v850h-105v29h148v-908h-148v29z" />
    <glyph glyph-name="asciicircum" unicode="^" horiz-adv-x="1030" 
d="M544 733l272 -280h-63l-238 236l-239 -236h-63l271 280h60z" />
    <glyph glyph-name="underscore" unicode="_" horiz-adv-x="514" 
d="M515 -202v-41h-516v41h516z" />
    <glyph glyph-name="grave" unicode="`" horiz-adv-x="199" 
d="M16 694h47l121 -135h-40z" />
    <glyph glyph-name="a" unicode="a" horiz-adv-x="532" 
d="M461 0v192v52q0 90 -54 152t-141 62q-86 0 -140.5 -61.5t-54.5 -152.5q0 -92 56 -153t139 -61q67 0 114.5 36.5t66.5 95.5l-6 -82q-27 -47 -75 -71q-43 -21 -100 -21q-114 0 -179 81q-58 73 -58 182q0 115 77 186q69 63 160 63q113 0 180 -83q57 -71 57 -161v-256h-42z
" />
    <glyph glyph-name="b" unicode="b" horiz-adv-x="532" 
d="M71 720v-424v-52q0 -90 54 -152t141 -62q86 0 140.5 61.5t54.5 152.5q0 92 -56 153t-139 61q-67 0 -114.5 -36.5t-66.5 -95.5l6 82q27 47 72.5 69.5t102.5 22.5q114 0 179 -81q58 -73 58 -182q0 -115 -77 -186q-69 -63 -160 -63q-113 0 -180 83q-57 71 -57 161v488h42z
" />
    <glyph glyph-name="c" unicode="c" horiz-adv-x="504" 
d="M31 244q0 107 68 181.5t176 74.5q69 0 126 -34q50 -30 76 -77l-35 -27q-25 41 -69.5 68t-97.5 27q-84 0 -143 -63t-59 -150q0 -75 57 -142q62 -72 145 -72q54 0 101 30q39 25 66 66l35 -29q-37 -54 -84.5 -81.5t-117.5 -27.5q-109 0 -179 80q-65 75 -65 176z" />
    <glyph glyph-name="d" unicode="d" horiz-adv-x="532" 
d="M461 720v-424v-52q0 -90 -54 -152t-141 -62q-86 0 -140.5 61.5t-54.5 152.5q0 92 56 153t139 61q67 0 116 -38q46 -35 65 -94l-6 82q-27 47 -72.5 69.5t-102.5 22.5q-114 0 -179 -81q-58 -73 -58 -182q0 -115 77 -186q69 -63 160 -63q113 0 180 83q57 71 57 161v488h-42z
" />
    <glyph glyph-name="e" unicode="e" horiz-adv-x="545" 
d="M477 265q-14 92 -78 146q-56 47 -124 47q-79 0 -135.5 -54.5t-66.5 -138.5h404zM73 225q13 -82 73 -138.5t129 -56.5q59 0 105.5 31.5t77.5 95.5l40 -17q-30 -70 -83 -109q-59 -43 -140 -43q-99 0 -170 70q-74 73 -74 186q0 98 59 171q69 85 185 85q104 0 174 -74
t70 -181v-20h-446z" />
    <glyph glyph-name="f" unicode="f" horiz-adv-x="348" 
d="M321 646q-27 20 -55.5 26t-61.5 6q-57 0 -91 -36t-34 -92v-75h200v-40h-200v-435h-42v550q0 78 47 124t120 46q37 0 69 -9t66 -33z" />
    <glyph glyph-name="g" unicode="g" horiz-adv-x="532" 
d="M29 251q0 115 77 186q69 63 160 63q113 0 180 -83q57 -71 57 -161v-226q0 -107 -54 -174q-58 -72 -163 -72q-75 0 -116 7.5t-73 25.5l14 44q36 -18 59 -25q40 -12 89 -12q82 0 133 41q69 55 69 180v147v52q0 90 -54 152t-141 62q-86 0 -140.5 -61.5t-54.5 -152.5
q0 -94 52 -154t143 -60q67 0 114.5 36.5t66.5 95.5l-6 -82q-27 -47 -75 -71q-43 -21 -100 -21q-124 0 -185 81q-52 69 -52 182z" />
    <glyph glyph-name="h" unicode="h" horiz-adv-x="471" 
d="M428 0h-42v309q0 73 -44 113q-39 36 -95 36q-57 0 -103.5 -23t-62.5 -66v-369h-42v720h42v-287q15 27 68.5 47t102.5 20q76 0 122 -45q54 -52 54 -154v-301z" />
    <glyph glyph-name="i" unicode="i" horiz-adv-x="117" 
d="M30 0v488h42v-488h-42zM51 590q-15 0 -25 10t-10 25t10 25t25 10t25 -10t10 -25t-10 -25t-25 -10z" />
    <glyph glyph-name="j" unicode="j" horiz-adv-x="113" 
d="M37 488h42v-565q0 -73 -48.5 -115.5t-126.5 -42.5q-51 0 -92 17t-82 58l27 37q37 -38 72 -54t73 -16q57 0 96 37t39 94v550zM58 590q-15 0 -25 10t-10 25t10 25t25 10t25 -10t10 -25t-10 -25t-25 -10z" />
    <glyph glyph-name="k" unicode="k" horiz-adv-x="407" 
d="M83 0h-42v720h42v-440l236 208h60l-196 -174q25 5 45 5q62 0 101 -38t39 -107v-174h-42v176q0 47 -30 75t-83 28q-41 0 -62 -6q-37 -11 -68 -44v-229z" />
    <glyph glyph-name="l" unicode="l" horiz-adv-x="110" 
d="M34 0v726h42v-726h-42z" />
    <glyph glyph-name="m" unicode="m" horiz-adv-x="700" 
d="M41 340q0 78 54 122q47 38 112 38q51 0 90 -25.5t55 -70.5q16 45 54.5 70.5t90.5 25.5q65 0 111 -37q55 -44 55 -123v-340h-42v341q0 60 -40 91q-33 26 -84 26q-53 0 -88.5 -33.5t-35.5 -93.5v-331h-42v331q0 59 -36 93t-88 34q-50 0 -83 -26q-41 -32 -41 -92v-340h-42
v340z" />
    <glyph glyph-name="n" unicode="n" horiz-adv-x="462" 
d="M34 0v333q0 75 62 123q57 44 135 44q79 0 137 -47q62 -51 62 -128v-325h-42v314q0 65 -46.5 104.5t-110.5 39.5q-63 0 -106 -35q-49 -40 -49 -107v-316h-42z" />
    <glyph glyph-name="o" unicode="o" horiz-adv-x="548" 
d="M519 244q0 -100 -63 -174q-70 -82 -180 -82q-109 0 -179 79q-66 74 -66 177q0 105 68.5 180.5t175.5 75.5q109 0 179 -79q65 -74 65 -177zM275 458q-90 0 -149 -70q-53 -63 -53 -144q0 -75 58 -142q62 -72 144 -72q84 0 143 66t59 148q0 83 -57 147q-60 67 -145 67z" />
    <glyph glyph-name="p" unicode="p" horiz-adv-x="532" 
d="M71 -232v424v52q0 90 54 152t141 62q86 0 140.5 -61.5t54.5 -152.5q0 -92 -56 -153t-139 -61q-67 0 -114.5 36.5t-66.5 95.5l6 -82q27 -47 75 -71q43 -21 100 -21q114 0 179 81q58 73 58 182q0 115 -77 186q-69 63 -160 63q-113 0 -180 -83q-57 -71 -57 -161v-488h42z
" />
    <glyph glyph-name="q" unicode="q" horiz-adv-x="532" 
d="M461 -232v424v52q0 90 -54 152t-141 62q-86 0 -140.5 -61.5t-54.5 -152.5q0 -92 56 -153t139 -61q67 0 114.5 36.5t66.5 95.5l-6 -82q-27 -47 -75 -71q-43 -21 -100 -21q-114 0 -179 81q-58 73 -58 182q0 115 77 186q69 63 160 63q113 0 180 -83q57 -71 57 -161v-488h-42
z" />
    <glyph glyph-name="r" unicode="r" horiz-adv-x="419" 
d="M43 0v325q0 76 51.5 125.5t124.5 49.5q56 0 104.5 -25t74.5 -73l-34 -23q-18 39 -57.5 59t-82.5 20q-65 0 -102 -38t-37 -114v-306h-42z" />
    <glyph glyph-name="s" unicode="s" horiz-adv-x="456" 
d="M443 488v-42h-53q-44 0 -75 -43q-36 -50 -56 -160q-29 -158 -77 -207q-35 -36 -114 -36h-55v42h57q54 0 83 31q41 45 64 174t61.5 185t109.5 56h55z" />
    <glyph glyph-name="t" unicode="t" horiz-adv-x="365" 
d="M43 700h42v-217h185v-40h-185v-306q0 -47 38.5 -77t87.5 -30q31 0 61 13.5t54 37.5l32 -36q-33 -26 -71 -41.5t-76 -15.5q-70 0 -119 40t-49 107v565z" />
    <glyph glyph-name="u" unicode="u" horiz-adv-x="462" 
d="M34 488v-333q0 -75 62 -123q57 -44 135 -44q79 0 137 47q62 51 62 128v325h-42v-314q0 -65 -46.5 -104.5t-110.5 -39.5q-63 0 -106 35q-49 40 -49 107v316h-42z" />
    <glyph glyph-name="v" unicode="v" horiz-adv-x="481" 
d="M424 483h51l-179 -457q-6 -19 -20 -28.5t-33 -9.5q-18 0 -32.5 9.5t-20.5 28.5l-186 457h51l169 -434q7 -19 19 -19q14 0 21 19z" />
    <glyph glyph-name="w" unicode="w" horiz-adv-x="700" 
d="M41 148q0 -78 54 -122q47 -38 112 -38q51 0 90 25.5t55 70.5q16 -45 54.5 -70.5t90.5 -25.5q65 0 111 37q55 44 55 123v340h-42v-341q0 -60 -40 -91q-34 -26 -84 -26q-53 0 -87 32q-37 35 -37 95v331h-42v-331q0 -59 -36 -93t-88 -34q-49 0 -83 27q-40 32 -40 91l-1 340
h-42v-340z" />
    <glyph glyph-name="x" unicode="x" horiz-adv-x="446" 
d="M425 407q0 -62 -26.5 -100t-72.5 -54q43 -15 71 -63.5t28 -109.5v-80h-42v76q0 76 -45 116.5t-112 40.5q-64 0 -107 -36q-50 -42 -50 -121v-76h-42v80q0 65 27.5 111.5t71.5 61.5q-47 16 -71 50q-28 39 -28 104v81h42v-79q0 -66 49 -103q44 -33 108 -33t108 33
q49 37 49 103v79h42v-81z" />
    <glyph glyph-name="y" unicode="y" horiz-adv-x="479" 
d="M47 488h42v-313q0 -72 44 -111q39 -34 95 -34q54 0 100 30t65 76v352h42v-526q0 -93 -63 -144q-57 -46 -146 -46q-59 0 -108.5 19.5t-70.5 55.5l42 30q35 -38 63.5 -50.5t64.5 -12.5q72 0 121 35q55 39 55 109v108q-23 -36 -66 -57t-105 -21q-76 0 -122 44
q-53 51 -53 153v303z" />
    <glyph glyph-name="z" unicode="z" horiz-adv-x="398" 
d="M378 0h-321q-18 0 -29 12t-11 30q0 19 40 71l218 259q14 16 26.5 32t12.5 32q0 10 -25 10h-15l-227 -1v43h268q26 0 42 -19q11 -13 11 -23q0 -16 -2 -24.5t-9 -17.5l-260 -317q-7 -8 -13 -15q-10 -12 -10 -20q0 -10 30 -10h274v-42z" />
    <glyph glyph-name="braceleft" unicode="{" horiz-adv-x="514" 
d="M426 699h-19q-71 0 -93 -27.5t-22 -105.5v-122q0 -83 -17 -118q-20 -41 -81 -59q60 -18 79 -56.5t19 -120.5v-122q0 -77 22 -104.5t92 -27.5h20v-44h-22q-99 0 -133 42q-30 38 -30 147v120q0 79 -28.5 111.5t-101.5 32.5l-23 -1v46l25 -1q70 0 99 33t29 111v120
q0 109 30 147q34 43 133 43h22v-44z" />
    <glyph glyph-name="bar" unicode="|" horiz-adv-x="514" 
d="M280 787v-1030h-46v1030h46z" />
    <glyph glyph-name="braceright" unicode="}" horiz-adv-x="514" 
d="M273 553v-120q0 -79 28.5 -111.5t101.5 -32.5l23 1v-46l-23 1q-72 0 -101 -33t-29 -111v-120q0 -109 -30 -147q-33 -42 -133 -42h-22v44h20q70 0 92 27t22 105v122q0 81 19.5 120t79.5 57q-60 17 -79.5 56t-19.5 121v122q0 77 -22 105t-93 28h-19v44h22q100 0 133 -42
q30 -38 30 -148z" />
    <glyph glyph-name="asciitilde" unicode="~" horiz-adv-x="858" 
d="M770 326q-106 -75 -195 -75q-37 0 -76 11q-7 2 -65 23t-76 26q-38 11 -73 11q-46 0 -91.5 -19t-103.5 -61v46q106 75 195 75q30 0 57 -6q13 -3 83 -28t94.5 -31t55.5 -6q46 0 91.5 19t103.5 61v-46z" />
    <glyph glyph-name="quotesinglbase" unicode="&#x201a;" horiz-adv-x="275" 
d="M67 -84l47 162h58l-58 -162h-47z" />
    <glyph glyph-name="florin" unicode="&#x192;" 
d="M296 594q15 73 51.5 104.5t106.5 31.5h72v-39h-85q-85 0 -105 -98l-36 -186h146v-40h-153l-83 -429q-27 -136 -149 -136h-81v39h88q83 0 103 98l80 428h-142v40h150z" />
    <glyph glyph-name="quotedblbase" unicode="&#x201e;" horiz-adv-x="405" 
d="M68 -84l46 162h58l-58 -162h-46zM197 -84l47 162h57l-57 -162h-47z" />
    <glyph glyph-name="ellipsis" unicode="&#x2026;" horiz-adv-x="901" 
d="M62 34q0 16 11 27t28 11t27.5 -10.5t10.5 -27.5t-10 -28t-28 -11q-17 0 -28 11t-11 28zM405 34q0 16 11 27t28 11t27.5 -10.5t10.5 -27.5t-10 -28t-28 -11q-17 0 -28 11t-11 28zM749 34q0 16 11 27t28 11t27.5 -10.5t10.5 -27.5t-10 -28t-28 -11q-17 0 -28 11t-11 28z
" />
    <glyph glyph-name="circumflex" unicode="&#x2c6;" horiz-adv-x="515" 
d="M119 543l105 177h66l104 -177h-40l-97 139l-97 -139h-41z" />
    <glyph glyph-name="perthousand" unicode="&#x2030;" horiz-adv-x="1218" 
d="M160 -13l477 738h42l-475 -738h-44zM50 576q0 65 45.5 110.5t109.5 45.5q65 0 110 -45t45 -111q0 -64 -45 -109t-110 -45t-110 45t-45 109zM92 576q0 -48 33 -81t80 -33t80 33t33 81q0 47 -33 81t-80 34t-80 -34t-33 -81zM856 154q0 64 45 110t110 46q64 0 109 -46
t45 -110t-44.5 -109.5t-109.5 -45.5t-110 45t-45 110zM897 154q0 -48 33 -81t81 -33q47 0 80 33t33 81t-33 81t-80 33q-48 0 -81 -33t-33 -81zM479 154q0 64 45 110t110 46q63 0 109 -46t46 -110t-45.5 -109.5t-109.5 -45.5q-65 0 -110 45t-45 110zM520 154q0 -48 33 -81
t81 -33q47 0 80 33t33 81t-33 81t-80 33q-48 0 -81 -33t-33 -81z" />
    <glyph glyph-name="guilsinglleft" unicode="&#x2039;" horiz-adv-x="281" 
d="M238 86h-47l-120 160l120 160h47l-119 -160z" />
    <glyph glyph-name="quoteleft" unicode="&#x2018;" horiz-adv-x="275" 
d="M198 720l-47 -162h-57l58 162h46z" />
    <glyph glyph-name="quoteright" unicode="&#x2019;" horiz-adv-x="275" 
d="M100 558l47 162h58l-58 -162h-47z" />
    <glyph glyph-name="quotedblleft" unicode="&#x201c;" horiz-adv-x="406" 
d="M198 720l-47 -162h-56l57 162h46zM328 720l-46 -162h-58l58 162h46z" />
    <glyph glyph-name="quotedblright" unicode="&#x201d;" horiz-adv-x="405" 
d="M101 558l46 162h58l-58 -162h-46zM231 558l46 162h57l-57 -162h-46z" />
    <glyph glyph-name="bullet" unicode="&#x2022;" horiz-adv-x="608" 
d="M155 383q0 62 43 105t106 43q60 0 104 -43t44 -105t-43.5 -105.5t-105.5 -43.5t-105 43t-43 106z" />
    <glyph glyph-name="endash" unicode="&#x2013;" horiz-adv-x="514" 
d="M-1 228v42h516v-42h-516z" />
    <glyph glyph-name="emdash" unicode="&#x2014;" horiz-adv-x="1030" 
d="M0 270h1030v-42h-1030v42z" />
    <glyph glyph-name="tilde" unicode="&#x2dc;" horiz-adv-x="515" 
d="M399 673q-26 -86 -90 -86q-16 0 -39 6l-44 13q-11 5 -28 5q-29 0 -48 -34h-36q23 85 92 85q20 0 35 -5l43 -14q11 -5 28 -5q31 0 51 35h36z" />
    <glyph glyph-name="trademark" unicode="&#x2122;" horiz-adv-x="858" 
d="M349 731v-26h-87v-241h-34v241h-90v26h211zM466 731l87 -222l81 222h52v-267h-30v241l-91 -241h-24l-96 241v-241h-30v267h51z" />
    <glyph glyph-name="scaron" unicode="&#x161;" horiz-adv-x="214" 
d="M103 760q51 -6 80 -37q25 -27 25 -66q0 -41 -28.5 -69.5t-76.5 -28.5q-47 0 -76 29t-29 66q0 41 26 70.5t79 35.5zM37 647q3 -28 24 -44.5t48 -16.5q26 0 44 14.5t21 46.5q2 10 2 14q0 26 -21.5 43.5t-51.5 21.5q-26 0 -46.5 -16.5t-20.5 -49.5q0 -9 1 -13z" />
    <glyph glyph-name="guilsinglright" unicode="&#x203a;" horiz-adv-x="282" 
d="M43 86l119 160l-119 160h47l120 -160l-120 -160h-47z" />
    <glyph glyph-name="nonbreakingspace" unicode="&#xa0;" horiz-adv-x="500" 
 />
    <glyph glyph-name="exclamdown" unicode="&#xa1;" horiz-adv-x="579" 
d="M94 146q20 -54 73 -86.5t113 -32.5q110 0 159 62q57 72 57 247q-30 -49 -64 -70q-54 -33 -152 -33q-111 0 -176 62t-65 174v251h45v-251q0 -101 69 -151q55 -40 137 -40q85 0 141 47q51 43 65 109v286h45v-430q0 -109 -37 -186q-59 -122 -197 -122q-135 0 -198 49
q-36 28 -65 96z" />
    <glyph glyph-name="cent" unicode="&#xa2;" horiz-adv-x="479" 
d="M47 488h42v-313q0 -72 44 -111q39 -34 95 -34q54 0 100 30t65 76v352h42v-526q0 -93 -63 -144q-57 -46 -146 -46q-59 0 -108.5 19.5t-70.5 55.5l42 30q35 -38 63.5 -50.5t64.5 -12.5q72 0 121 35q55 39 55 109v108q-23 -36 -66 -57t-105 -21q-76 0 -122 44
q-53 51 -53 153v303z" />
    <glyph glyph-name="sterling" unicode="&#xa3;" 
d="M312 44q159 0 159 198v35h40v-44q0 -113 -52 -173t-150 -60h-322v44h30q52 0 84.5 38t32.5 105v175h-64v42h64v86q0 115 55.5 179.5t152.5 64.5q51 0 105 -20l-13 -35q-54 16 -91 16q-75 0 -118.5 -49.5t-43.5 -134.5v-107h127v-42h-127v-169q0 -58 -15 -92.5t-54 -56.5
h200z" />
    <glyph glyph-name="currency" unicode="&#xa4;" horiz-adv-x="624" 
d="M180 606q59 47 132 47q74 0 133 -47l103 104l30 -30l-104 -103q46 -58 46 -132t-46 -132l104 -103l-30 -30l-103 104q-27 -22 -62.5 -34t-70.5 -12q-74 0 -132 46l-104 -104l-29 30l104 103q-46 58 -46 132t46 132l-104 103l29 30zM480 446q0 69 -48.5 117.5t-118.5 48.5
q-69 0 -118 -49t-49 -117q0 -70 48.5 -118.5t118.5 -48.5q69 0 118 49t49 118z" />
    <glyph glyph-name="yen" unicode="&#xa5;" horiz-adv-x="451" 
d="M206 -1v301q-20 9 -30 35h-176v29h162l-29 67h-133v29h121l-111 259h42l152 -354q8 -15 9 -16q6 -7 13 -7q9 0 14 9t7 14l153 354h41l-111 -259h121v-29h-133l-30 -67h163v-29h-176q-13 -26 -29 -35v-301h-40z" />
    <glyph glyph-name="brokenbar" unicode="&#xa6;" horiz-adv-x="514" 
d="M280 720v-381h-46v381h46zM280 205v-381h-46v381h46z" />
    <glyph glyph-name="section" unicode="&#xa7;" horiz-adv-x="538" 
d="M147 474q-32 -36 -32 -81q0 -68 93 -105l107 -41q27 -11 54 -21t38 -20q27 36 27 76q0 41 -22.5 66t-78.5 47l-114 45q-21 8 -40.5 16.5t-31.5 17.5zM77 -71v44h153l68 -1q32 0 54 3t39 12q56 32 56 93q0 42 -25.5 67t-81.5 48l-137 54q-66 25 -96 58t-30 84q0 54 39 103
q-35 38 -35 93q0 60 39 96q25 25 55.5 31.5t83.5 6.5h158v-41h-96l-69 1q-23 0 -43 -1.5t-38 -11.5q-52 -28 -52 -81q0 -41 27 -64q19 -16 73 -38l134 -56q64 -27 93.5 -59.5t29.5 -83.5t-38 -100q53 -44 53 -111q0 -84 -76 -126q-24 -13 -47.5 -16.5t-61.5 -3.5h-229z" />
    <glyph glyph-name="dieresis" unicode="&#xa8;" horiz-adv-x="521" 
d="M192 848q15 0 24 -11t9 -26t-8.5 -25t-24.5 -10t-28 12t-12 27q0 12 9.5 21.5t30.5 11.5zM356 848q12 -3 20.5 -15.5t8.5 -27.5q0 -29 -29 -29q-19 0 -30.5 10.5t-11.5 24.5t10.5 24.5t31.5 12.5zM486 0h-261q-98 0 -134 28q-39 31 -39 117v572h434v-42h-392v-281h380
v-41h-383v-208q0 -61 29.5 -83.5t102.5 -22.5h263v-39z" />
    <glyph glyph-name="copyright" unicode="&#xa9;" horiz-adv-x="858" 
d="M428 731q154 0 261 -107t107 -261q0 -151 -108.5 -259.5t-259.5 -108.5q-149 0 -258 109t-109 259q0 72 28 140t81 122q104 106 258 106zM760 363q0 138 -97 235t-235 97q-135 0 -233 -98t-98 -234q0 -135 98 -233t233 -98t236 99q96 94 96 232zM543 462q-21 86 -114 86
q-63 0 -98.5 -48.5t-35.5 -137.5q0 -86 36 -134.5t98 -48.5q45 0 78 26.5t43 69.5h51q-5 -62 -53.5 -101t-121.5 -39q-85 0 -137.5 61.5t-52.5 168.5q0 104 54.5 165.5t141.5 61.5q67 0 112.5 -36t51.5 -94h-53z" />
    <glyph glyph-name="ordfeminine" unicode="&#xaa;" horiz-adv-x="759" 
d="M731 556l-35 -44q-37 79 -106 124q-75 49 -174 49q-136 0 -234 -87t-98 -212h397v-34h-397q0 -137 74 -222q86 -99 248 -99q93 0 160.5 38.5t108.5 104.5l29 -40q-45 -66 -121.5 -104.5t-176.5 -38.5q-175 0 -278 120q-91 106 -91 255q0 145 93 247q103 113 276 113
q117 0 202 -47q79 -43 123 -123z" />
    <glyph glyph-name="guillemotleft" unicode="&#xab;" horiz-adv-x="440" 
d="M239 86h-47l-121 160l121 160h47l-119 -160zM399 86h-49l-119 160l119 160h49l-121 -160z" />
    <glyph glyph-name="logicalnot" unicode="&#xac;" horiz-adv-x="858" 
d="M730 431v-253h-40v212h-563v41h603z" />
    <glyph glyph-name="minus" unicode="&#xad;" horiz-adv-x="340" 
d="M71 228v42h198v-42h-198z" />
    <glyph glyph-name="registered" unicode="&#xae;" horiz-adv-x="858" 
d="M428 731q154 0 261 -107t107 -261q0 -147 -110.5 -257.5t-257.5 -110.5q-149 0 -258 109t-109 259q0 72 28 140t81 122q104 106 258 106zM760 363q0 134 -100 233t-232 99q-135 0 -233 -98t-98 -234q0 -135 98 -233t233 -98q132 0 232 98t100 233zM439 581
q91 0 133 -27.5t42 -89.5q0 -44 -27.5 -74.5t-74.5 -35.5l96 -198h-66l-91 189h-107v-189h-58v425h153zM428 542h-84v-157h84q70 0 99 16.5t29 64.5q0 76 -128 76z" />
    <glyph glyph-name="macron" unicode="&#xaf;" horiz-adv-x="137" 
d="M93 720v-720h-51v720h51zM-10 898q15 0 24 -11t9 -26t-8.5 -25t-24.5 -10t-28 12t-12 27q0 12 9.5 21.5t30.5 11.5zM154 898q12 -3 20.5 -15.5t8.5 -27.5q0 -29 -29 -29q-19 0 -30.5 10.5t-11.5 24.5t10.5 24.5t31.5 12.5z" />
    <glyph glyph-name="plusminus" unicode="&#xb1;" horiz-adv-x="858" 
d="M449 584v-178h281v-40h-281v-177h-41v177h-281v40h281v178h41zM730 71v-40h-603v40h603z" />
    <glyph glyph-name="twosuperior" unicode="&#xb2;" horiz-adv-x="118" 
d="M83 719v-720h-51v720h51z" />
    <glyph glyph-name="threesuperior" unicode="&#xb3;" horiz-adv-x="117" 
d="M79 483v-483h-40v483h40zM86 624q0 -17 -9.5 -25.5t-22.5 -8.5q-9 0 -16 4q-15 9 -15 30q0 16 9.5 26t21.5 10q13 0 22.5 -9.5t9.5 -26.5z" />
    <glyph glyph-name="acute" unicode="&#xb4;" horiz-adv-x="515" 
d="M196 543l109 177h67l-135 -177h-41z" />
    <glyph glyph-name="mu" unicode="&#xb5;" horiz-adv-x="550" 
d="M164 535l-62 -297q-8 -42 -8 -71q0 -130 117 -130q133 0 180 213l63 285h60l-83 -396q-5 -21 -8.5 -39.5t-3.5 -28.5q0 -32 34 -32l19 1l-9 -48q-11 -2 -21.5 -4t-16.5 -2q-67 0 -67 64l2 22q-22 -42 -62 -64t-95 -22q-50 0 -85.5 22.5t-52.5 63.5l-60 -285h-60l158 748
h61z" />
    <glyph glyph-name="paragraph" unicode="&#xb6;" horiz-adv-x="515" 
d="M468 712h-65v-712h-35v712h-97v-712h-35v394q-87 0 -139 49t-52 126q0 78 54 126.5t145 48.5h224v-32z" />
    <glyph glyph-name="periodcentered" unicode="&#xb7;" horiz-adv-x="275" 
d="M99 370q0 16 11 27t28 11t27.5 -10.5t10.5 -27.5t-10 -28t-28 -11q-17 0 -28 11t-11 28z" />
    <glyph glyph-name="periodcentered" unicode="&#x2219;" horiz-adv-x="275" 
d="M99 370q0 16 11 27t28 11t27.5 -10.5t10.5 -27.5t-10 -28t-28 -11q-17 0 -28 11t-11 28z" />
    <glyph glyph-name="cedilla" unicode="&#xb8;" horiz-adv-x="583" 
d="M504 265q-14 95 -82 147q-58 44 -129 44q-85 0 -141.5 -53.5t-64.5 -137.5h417zM552 216h-465q8 -83 64.5 -136t139.5 -53q65 0 114 26q59 31 83 95l42 -24q-30 -70 -93.5 -104t-150.5 -34q-99 0 -170 67q-77 73 -77 191q0 100 59 169q69 80 193 80q108 0 181 -70
q80 -76 80 -207zM214 662q15 0 24 -11t9 -26t-8.5 -25t-24.5 -10t-28 12t-12 27q0 12 9.5 21.5t30.5 11.5zM378 662q12 -3 20.5 -15.5t8.5 -27.5q0 -29 -29 -29q-19 0 -30.5 10.5t-11.5 24.5t10.5 24.5t31.5 12.5z" />
    <glyph glyph-name="onesuperior" unicode="&#xb9;" horiz-adv-x="419" 
d="M56 551q0 -63 44 -106t107 -43t107 43t44 106t-44 106t-107 43t-107 -43t-44 -106zM23 550q0 72 54 124.5t130 52.5q77 0 130.5 -51t53.5 -126t-53 -125.5t-131 -50.5q-77 0 -130.5 52t-53.5 124z" />
    <glyph glyph-name="ordmasculine" unicode="&#xba;" horiz-adv-x="506" 
d="M486 382l-34 -39q-24 50 -67 80q-47 33 -105 33q-88 0 -142 -56q-49 -51 -57 -129h225v-40h-227q0 -77 48 -131q52 -59 141 -68q60 0 104 22.5t69 63.5l36 -37q-33 -42 -83 -64t-121 -22q-108 0 -177 74q-64 69 -64 166q0 112 60 182q67 78 186 78q72 0 126 -31
q50 -28 82 -82z" />
    <glyph glyph-name="guillemotright" unicode="&#xbb;" horiz-adv-x="440" 
d="M41 86l120 160l-120 160h49l119 -160l-119 -160h-49zM200 86l120 160l-120 160h48l120 -160l-120 -160h-48z" />
    <glyph glyph-name="threequarters" unicode="&#xbe;" horiz-adv-x="783" 
d="M743 73q18 -2 27 -12t9 -24q0 -16 -9.5 -26.5t-26.5 -10.5q-35 0 -49 26q0 36 49 47zM403 73q35 -4 35 -28q0 -17 -15.5 -31.5t-34.5 -14.5q-9 0 -19 6.5t-15 20.5q0 17 11.5 29.5t37.5 17.5zM55 73q14 -2 22 -8q13 -10 13 -28q0 -15 -9 -26t-26 -11q-36 0 -50 26
q0 36 50 47z" />
    <glyph glyph-name="questiondown" unicode="&#xbf;" horiz-adv-x="129" 
d="M84 483v-483h-41v483h41zM-16 662q15 0 24 -11t9 -26t-8.5 -25t-24.5 -10t-28 12t-12 27q0 12 9.5 21.5t30.5 11.5zM148 662q12 -3 20.5 -15.5t8.5 -27.5q0 -29 -29 -29q-19 0 -30.5 10.5t-11.5 24.5t10.5 24.5t31.5 12.5z" />
    <glyph glyph-name="Agrave" unicode="&#xc0;" horiz-adv-x="566" 
d="M79 0h-45v517q0 101 71.5 161t178.5 60t176 -58q74 -62 74 -163v-517h-45v292h-410v-292zM489 333v163q0 89 -55.5 144.5t-149.5 55.5q-92 0 -148.5 -55.5t-56.5 -144.5v-163h410z" />
    <glyph glyph-name="Agrave" unicode="&#x410;" horiz-adv-x="566" 
d="M79 0h-45v517q0 101 71.5 161t178.5 60t176 -58q74 -62 74 -163v-517h-45v292h-410v-292zM489 333v163q0 89 -55.5 144.5t-149.5 55.5q-92 0 -148.5 -55.5t-56.5 -144.5v-163h410z" />
    <glyph glyph-name="Aacute" unicode="&#xc1;" horiz-adv-x="546" 
d="M278 485q-53 0 -98 -20q-36 -16 -63 -42l-17 -88q35 51 69 74q45 31 109 31q89 0 144 -60q52 -57 52 -146q0 -84 -55.5 -145.5t-140.5 -61.5t-140.5 61t-55.5 160v430h370v42h-415v-486q0 -108 70 -180t176 -72q103 0 171 77q65 73 65 175t-64 174q-69 77 -177 77z" />
    <glyph glyph-name="Aacute" unicode="&#x411;" horiz-adv-x="546" 
d="M278 485q-53 0 -98 -20q-36 -16 -63 -42l-17 -88q35 51 69 74q45 31 109 31q89 0 144 -60q52 -57 52 -146q0 -84 -55.5 -145.5t-140.5 -61.5t-140.5 61t-55.5 160v430h370v42h-415v-486q0 -108 70 -180t176 -72q103 0 171 77q65 73 65 175t-64 174q-69 77 -177 77z" />
    <glyph glyph-name="Acircumflex" unicode="&#xc2;" horiz-adv-x="557" 
d="M542 219q0 -107 -67 -172t-180 -65q-106 0 -176 61q-75 65 -75 174v506h221q95 0 151 -29q74 -39 74 -128q0 -56 -27 -91q-19 -25 -57 -45q67 -28 104 -94q32 -57 32 -117zM89 681v-464q0 -68 63 -129t143 -61q84 0 141 51q61 55 61 141q0 71 -56 127q-60 60 -146 60
q-76 0 -121 -26q-54 -31 -77 -105l15 112q34 37 82.5 50.5t108.5 13.5q64 0 99 24q43 29 43 94q0 51 -48 81.5t-132 30.5h-176z" />
    <glyph glyph-name="Acircumflex" unicode="&#x412;" horiz-adv-x="557" 
d="M542 219q0 -107 -67 -172t-180 -65q-106 0 -176 61q-75 65 -75 174v506h221q95 0 151 -29q74 -39 74 -128q0 -56 -27 -91q-19 -25 -57 -45q67 -28 104 -94q32 -57 32 -117zM89 681v-464q0 -68 63 -129t143 -61q84 0 141 51q61 55 61 141q0 71 -56 127q-60 60 -146 60
q-76 0 -121 -26q-54 -31 -77 -105l15 112q34 37 82.5 50.5t108.5 13.5q64 0 99 24q43 29 43 94q0 51 -48 81.5t-132 30.5h-176z" />
    <glyph glyph-name="Atilde" unicode="&#xc3;" horiz-adv-x="413" 
d="M41 0v573q0 87 37.5 117t139.5 30h175v-43h-182q-70 0 -97.5 -22.5t-27.5 -85.5v-569h-45z" />
    <glyph glyph-name="Atilde" unicode="&#x413;" horiz-adv-x="413" 
d="M41 0v573q0 87 37.5 117t139.5 30h175v-43h-182q-70 0 -97.5 -22.5t-27.5 -85.5v-569h-45z" />
    <glyph glyph-name="Adieresis" unicode="&#xc4;" horiz-adv-x="595" 
d="M-19 0v42h71v475q0 92 71.5 156.5t174.5 64.5q111 0 178 -63t67 -158v-475h68v-42h-630zM498 42v454q0 92 -62 148q-57 52 -138 52q-72 0 -132 -51q-69 -59 -69 -149v-454h401z" />
    <glyph glyph-name="Adieresis" unicode="&#x414;" horiz-adv-x="595" 
d="M-19 0v42h71v475q0 92 71.5 156.5t174.5 64.5q111 0 178 -63t67 -158v-475h68v-42h-630zM498 42v454q0 92 -62 148q-57 52 -138 52q-72 0 -132 -51q-69 -59 -69 -149v-454h401z" />
    <glyph glyph-name="Aring" unicode="&#xc5;" horiz-adv-x="502" 
d="M477 720v-42h-392v-283h380v-42h-380v-208q0 -60 30 -81.5t102 -21.5h260v-42h-260q-100 0 -138.5 30t-38.5 115v575h437z" />
    <glyph glyph-name="Aring" unicode="&#x415;" horiz-adv-x="502" 
d="M477 720v-42h-392v-283h380v-42h-380v-208q0 -60 30 -81.5t102 -21.5h260v-42h-260q-100 0 -138.5 30t-38.5 115v575h437z" />
    <glyph glyph-name="AE" unicode="&#xc6;" horiz-adv-x="864" 
d="M410 0h45v326q29 48 81 66q38 13 105 13q60 0 101 -34q51 -42 51 -122v-249h45v254q0 90 -53.5 141.5t-128.5 51.5h-16q-23 0 -44 -3.5t-35 -14.5l288 291h-61l-333 -335v335h-45v-335l-332 335h-61l288 -291q-9 7 -30 12.5t-49 5.5h-16q-76 0 -127 -49q-55 -53 -55 -144
v-254h45v249q0 79 50 121q42 35 102 35q65 0 103 -13q52 -18 82 -65v-327z" />
    <glyph glyph-name="AE" unicode="&#x416;" horiz-adv-x="864" 
d="M410 0h45v326q29 48 81 66q38 13 105 13q60 0 101 -34q51 -42 51 -122v-249h45v254q0 90 -53.5 141.5t-128.5 51.5h-16q-23 0 -44 -3.5t-35 -14.5l288 291h-61l-333 -335v335h-45v-335l-332 335h-61l288 -291q-9 7 -30 12.5t-49 5.5h-16q-76 0 -127 -49q-55 -53 -55 -144
v-254h45v249q0 79 50 121q42 35 102 35q65 0 103 -13q52 -18 82 -65v-327z" />
    <glyph glyph-name="Ccedilla" unicode="&#xc7;" horiz-adv-x="536" 
d="M136 723h104q91 0 147 -29q74 -39 74 -124q0 -58 -18 -87t-66 -53q68 -28 105 -94q31 -56 31 -117q0 -114 -67.5 -175.5t-186.5 -61.5q-78 0 -138 38q-71 45 -99 136l40 22q38 -85 93 -121q45 -30 106 -30q83 0 142 47q65 52 65 136q0 87 -61.5 143t-167.5 56h-73v42h86
q86 0 125 28t39 90q0 50 -45.5 81t-129.5 31h-105v42z" />
    <glyph glyph-name="Ccedilla" unicode="&#x417;" horiz-adv-x="536" 
d="M136 723h104q91 0 147 -29q74 -39 74 -124q0 -58 -18 -87t-66 -53q68 -28 105 -94q31 -56 31 -117q0 -114 -67.5 -175.5t-186.5 -61.5q-78 0 -138 38q-71 45 -99 136l40 22q38 -85 93 -121q45 -30 106 -30q83 0 142 47q65 52 65 136q0 87 -61.5 143t-167.5 56h-73v42h86
q86 0 125 28t39 90q0 50 -45.5 81t-129.5 31h-105v42z" />
    <glyph glyph-name="Egrave" unicode="&#xc8;" horiz-adv-x="583" 
d="M42 720h45v-496q0 -105 73 -158q57 -42 132 -42q86 0 143 50q63 55 63 150v496h45v-720h-45v82q-24 -42 -67 -67q-57 -33 -139 -33q-94 0 -163 48q-87 60 -87 172v518z" />
    <glyph glyph-name="Egrave" unicode="&#x418;" horiz-adv-x="583" 
d="M42 720h45v-496q0 -105 73 -158q57 -42 132 -42q86 0 143 50q63 55 63 150v496h45v-720h-45v82q-24 -42 -67 -67q-57 -33 -139 -33q-94 0 -163 48q-87 60 -87 172v518z" />
    <glyph glyph-name="Eacute" unicode="&#xc9;" horiz-adv-x="579" 
d="M41 720h45v-496q0 -105 73 -158q57 -42 132 -42q86 0 143 50q63 55 63 150v496h45v-720h-45v81q-21 -40 -66 -66q-57 -33 -140 -33q-94 0 -163 48q-87 60 -87 172v518zM378 802v-42h-170v42h170z" />
    <glyph glyph-name="Eacute" unicode="&#x419;" horiz-adv-x="579" 
d="M41 720h45v-496q0 -105 73 -158q57 -42 132 -42q86 0 143 50q63 55 63 150v496h45v-720h-45v81q-21 -40 -66 -66q-57 -33 -140 -33q-94 0 -163 48q-87 60 -87 172v518zM378 802v-42h-170v42h170z" />
    <glyph glyph-name="Ecircumflex" unicode="&#xca;" horiz-adv-x="542" 
d="M44 720h45v-333l348 333h68l-290 -274q25 8 45.5 11.5t42.5 3.5q88 0 146.5 -56.5t58.5 -155.5v-249h-45v249q0 85 -54 129q-47 38 -123 38q-55 0 -108.5 -23t-88.5 -64v-329h-45v720z" />
    <glyph glyph-name="Ecircumflex" unicode="&#x41a;" horiz-adv-x="542" 
d="M44 720h45v-333l348 333h68l-290 -274q25 8 45.5 11.5t42.5 3.5q88 0 146.5 -56.5t58.5 -155.5v-249h-45v249q0 85 -54 129q-47 38 -123 38q-55 0 -108.5 -23t-88.5 -64v-329h-45v720z" />
    <glyph glyph-name="Edieresis" unicode="&#xcb;" horiz-adv-x="601" 
d="M166 496q0 87 44 141q48 59 138 59t138 -58q44 -53 44 -142v-496h45v517q0 99 -62 160t-165 61t-165 -60t-62 -161v-379q0 -59 -23 -81t-80 -22v-42q81 0 114.5 36.5t33.5 127.5v339z" />
    <glyph glyph-name="Edieresis" unicode="&#x41b;" horiz-adv-x="601" 
d="M166 496q0 87 44 141q48 59 138 59t138 -58q44 -53 44 -142v-496h45v517q0 99 -62 160t-165 61t-165 -60t-62 -161v-379q0 -59 -23 -81t-80 -22v-42q81 0 114.5 36.5t33.5 127.5v339z" />
    <glyph glyph-name="Igrave" unicode="&#xcc;" horiz-adv-x="817" 
d="M190 738q24 0 41 -18t24 -47l153 -570l153 570q7 28 24.5 46.5t40.5 18.5q58 0 73 -90l110 -648h-48l-99 605q-8 48 -16 68t-20 20q-8 0 -13.5 -12t-22.5 -76l-143 -549q-7 -30 -15.5 -43t-23.5 -13q-25 0 -39 56l-143 549q-8 30 -16 61q-9 27 -20 27q-12 0 -20 -19
t-16 -69l-99 -605h-48l110 648q15 90 73 90z" />
    <glyph glyph-name="Igrave" unicode="&#x41c;" horiz-adv-x="817" 
d="M190 738q24 0 41 -18t24 -47l153 -570l153 570q7 28 24.5 46.5t40.5 18.5q58 0 73 -90l110 -648h-48l-99 605q-8 48 -16 68t-20 20q-8 0 -13.5 -12t-22.5 -76l-143 -549q-7 -30 -15.5 -43t-23.5 -13q-25 0 -39 56l-143 549q-8 30 -16 61q-9 27 -20 27q-12 0 -20 -19
t-16 -69l-99 -605h-48l110 648q15 90 73 90z" />
    <glyph glyph-name="Iacute" unicode="&#xcd;" horiz-adv-x="580" 
d="M41 720h45v-329h408v329h45v-720h-45v349h-408v-349h-45v720z" />
    <glyph glyph-name="Iacute" unicode="&#x41d;" horiz-adv-x="580" 
d="M41 720h45v-329h408v329h45v-720h-45v349h-408v-349h-45v720z" />
    <glyph glyph-name="Icircumflex" unicode="&#xce;" horiz-adv-x="798" 
d="M399 738q156 0 260.5 -109.5t104.5 -268.5q0 -158 -105 -268t-260 -110q-156 0 -261 110t-105 268t105 268t261 110zM399 693q-130 0 -225.5 -100.5t-95.5 -232.5t95.5 -232.5t225.5 -100.5t225 100t95 233t-95 233t-225 100z" />
    <glyph glyph-name="Icircumflex" unicode="&#x41e;" horiz-adv-x="798" 
d="M399 738q156 0 260.5 -109.5t104.5 -268.5q0 -158 -105 -268t-260 -110q-156 0 -261 110t-105 268t105 268t261 110zM399 693q-130 0 -225.5 -100.5t-95.5 -232.5t95.5 -232.5t225.5 -100.5t225 100t95 233t-95 233t-225 100z" />
    <glyph glyph-name="Idieresis" unicode="&#xcf;" horiz-adv-x="566" 
d="M79 0h-45v517q0 101 71.5 161t178.5 60t176 -58q74 -62 74 -163v-517h-45v496q0 85 -55 141q-58 59 -150 59t-148.5 -57.5t-56.5 -142.5v-496z" />
    <glyph glyph-name="Idieresis" unicode="&#x41f;" horiz-adv-x="566" 
d="M79 0h-45v517q0 101 71.5 161t178.5 60t176 -58q74 -62 74 -163v-517h-45v496q0 85 -55 141q-58 59 -150 59t-148.5 -57.5t-56.5 -142.5v-496z" />
    <glyph glyph-name="Eth" unicode="&#xd0;" horiz-adv-x="550" 
d="M282 235q-53 0 -98 20q-36 16 -63 42l-17 88q35 -51 69 -74q45 -31 109 -31q89 0 142.5 58.5t53.5 147.5q0 84 -54 144q-57 63 -142 63t-140.5 -61t-55.5 -160v-472h-45v486q0 108 70 180t176 72q103 0 171 -77q65 -73 65 -175t-64 -174q-69 -77 -177 -77z" />
    <glyph glyph-name="Eth" unicode="&#x420;" horiz-adv-x="550" 
d="M282 235q-53 0 -98 20q-36 16 -63 42l-17 88q35 -51 69 -74q45 -31 109 -31q89 0 142.5 58.5t53.5 147.5q0 84 -54 144q-57 63 -142 63t-140.5 -61t-55.5 -160v-472h-45v486q0 108 70 180t176 72q103 0 171 -77q65 -73 65 -175t-64 -174q-69 -77 -177 -77z" />
    <glyph glyph-name="Ntilde" unicode="&#xd1;" horiz-adv-x="729" 
d="M402 693q-134 0 -230 -106q-91 -101 -91 -226q0 -129 94.5 -231.5t226.5 -102.5q83 0 155 44q63 39 109 105l24 -52q-55 -68 -119 -102q-74 -40 -168 -40q-166 0 -271 120q-96 110 -96 259q0 146 94 255q105 122 272 122q102 0 185 -50q66 -39 112 -105l-32 -42
q-39 64 -105 105q-75 47 -160 47z" />
    <glyph glyph-name="Ntilde" unicode="&#x421;" horiz-adv-x="729" 
d="M402 693q-134 0 -230 -106q-91 -101 -91 -226q0 -129 94.5 -231.5t226.5 -102.5q83 0 155 44q63 39 109 105l24 -52q-55 -68 -119 -102q-74 -40 -168 -40q-166 0 -271 120q-96 110 -96 259q0 146 94 255q105 122 272 122q102 0 185 -50q66 -39 112 -105l-32 -42
q-39 64 -105 105q-75 47 -160 47z" />
    <glyph glyph-name="Ograve" unicode="&#xd2;" horiz-adv-x="457" 
d="M15 678v42h430v-42h-193v-678h-45v678h-192z" />
    <glyph glyph-name="Ograve" unicode="&#x422;" horiz-adv-x="457" 
d="M15 678v42h430v-42h-193v-678h-45v678h-192z" />
    <glyph glyph-name="Oacute" unicode="&#xd3;" horiz-adv-x="579" 
d="M94 146q20 -54 73 -86.5t113 -32.5q110 0 159 62q57 72 57 247q-30 -49 -64 -70q-54 -33 -152 -33q-111 0 -176 62t-65 174v251h45v-251q0 -101 69 -151q55 -40 137 -40q85 0 141 47q51 43 65 109v286h45v-430q0 -109 -37 -186q-59 -122 -197 -122q-135 0 -198 49
q-36 28 -65 96z" />
    <glyph glyph-name="Oacute" unicode="&#x423;" horiz-adv-x="579" 
d="M94 146q20 -54 73 -86.5t113 -32.5q110 0 159 62q57 72 57 247q-30 -49 -64 -70q-54 -33 -152 -33q-111 0 -176 62t-65 174v251h45v-251q0 -101 69 -151q55 -40 137 -40q85 0 141 47q51 43 65 109v286h45v-430q0 -109 -37 -186q-59 -122 -197 -122q-135 0 -198 49
q-36 28 -65 96z" />
    <glyph glyph-name="Ocircumflex" unicode="&#xd4;" horiz-adv-x="893" 
d="M444 0h45v493q0 76 44 135q48 65 120 65q77 0 121 -60q41 -56 41 -140q0 -94 -37 -145q-41 -56 -125 -56q-56 0 -90 25.5t-72 90.5l33 -107q34 -27 38 -30q42 -24 102 -24q106 0 157 84q39 64 39 162q0 113 -57.5 179t-149.5 66q-68 0 -116 -40q-44 -37 -69 -106
q-27 70 -71 106q-48 40 -117 40q-92 0 -149.5 -66t-57.5 -179q0 -99 38 -162q51 -84 158 -84q62 0 102 23q33 27 38 31l33 107q-38 -64 -71.5 -90t-90.5 -26q-84 0 -125 56q-37 51 -37 145q0 85 40 140q44 60 122 60q71 0 119 -65q45 -61 45 -135v-493z" />
    <glyph glyph-name="Ocircumflex" unicode="&#x424;" horiz-adv-x="893" 
d="M444 0h45v493q0 76 44 135q48 65 120 65q77 0 121 -60q41 -56 41 -140q0 -94 -37 -145q-41 -56 -125 -56q-56 0 -90 25.5t-72 90.5l33 -107q34 -27 38 -30q42 -24 102 -24q106 0 157 84q39 64 39 162q0 113 -57.5 179t-149.5 66q-68 0 -116 -40q-44 -37 -69 -106
q-27 70 -71 106q-48 40 -117 40q-92 0 -149.5 -66t-57.5 -179q0 -99 38 -162q51 -84 158 -84q62 0 102 23q33 27 38 31l33 107q-38 -64 -71.5 -90t-90.5 -26q-84 0 -125 56q-37 51 -37 145q0 85 40 140q44 60 122 60q71 0 119 -65q45 -61 45 -135v-493z" />
    <glyph glyph-name="Otilde" unicode="&#xd5;" horiz-adv-x="573" 
d="M33 201v8q0 76 34 118q29 35 87 54q-56 19 -86 55q-35 42 -35 104v180h45v-180q0 -73 58 -106q52 -30 151 -30q98 0 153.5 39t55.5 95v182h45v-187q0 -58 -35 -98q-31 -35 -86 -54q54 -18 85 -60q36 -48 36 -118v-203h-45v209q0 57 -57 102q-61 48 -152 48
q-98 0 -153.5 -39.5t-55.5 -110.5v-209h-45v201z" />
    <glyph glyph-name="Otilde" unicode="&#x425;" horiz-adv-x="573" 
d="M33 201v8q0 76 34 118q29 35 87 54q-56 19 -86 55q-35 42 -35 104v180h45v-180q0 -73 58 -106q52 -30 151 -30q98 0 153.5 39t55.5 95v182h45v-187q0 -58 -35 -98q-31 -35 -86 -54q54 -18 85 -60q36 -48 36 -118v-203h-45v209q0 57 -57 102q-61 48 -152 48
q-98 0 -153.5 -39.5t-55.5 -110.5v-209h-45v201z" />
    <glyph glyph-name="Odieresis" unicode="&#xd6;" horiz-adv-x="581" 
d="M602 -1h-340q-112 0 -172 65q-56 61 -56 169v487h45v-471q0 -99 44 -151q49 -57 149 -57l217 -1v680h45v-679h68v-42z" />
    <glyph glyph-name="Odieresis" unicode="&#x426;" horiz-adv-x="581" 
d="M602 -1h-340q-112 0 -172 65q-56 61 -56 169v487h45v-471q0 -99 44 -151q49 -57 149 -57l217 -1v680h45v-679h68v-42z" />
    <glyph glyph-name="multiply" unicode="&#xd7;" horiz-adv-x="566" 
d="M525 0h-45v393q-22 -43 -62 -67q-54 -32 -144 -32q-118 0 -173.5 54t-55.5 175v197h45v-207q0 -97 53 -139q44 -35 136 -35q84 0 134 39q41 32 67 96v246h45v-720z" />
    <glyph glyph-name="multiply" unicode="&#x427;" horiz-adv-x="566" 
d="M525 0h-45v393q-22 -43 -62 -67q-54 -32 -144 -32q-118 0 -173.5 54t-55.5 175v197h45v-207q0 -97 53 -139q44 -35 136 -35q84 0 134 39q41 32 67 96v246h45v-720z" />
    <glyph glyph-name="Oslash" unicode="&#xd8;" horiz-adv-x="907" 
d="M864 -1h-591q-112 0 -172 65q-56 61 -56 169v487h45v-471q0 -99 44 -151q49 -57 149 -57h149v679h45v-679h342v679h45v-721z" />
    <glyph glyph-name="Oslash" unicode="&#x428;" horiz-adv-x="907" 
d="M864 -1h-591q-112 0 -172 65q-56 61 -56 169v487h45v-471q0 -99 44 -151q49 -57 149 -57h149v679h45v-679h342v679h45v-721z" />
    <glyph glyph-name="Ugrave" unicode="&#xd9;" horiz-adv-x="907" 
d="M932 -1h-659q-112 0 -172 65q-56 61 -56 169v487h45v-471q0 -99 44 -151q49 -57 149 -57h149v679h45v-679h342v679h45v-679h68v-42z" />
    <glyph glyph-name="Ugrave" unicode="&#x429;" horiz-adv-x="907" 
d="M932 -1h-659q-112 0 -172 65q-56 61 -56 169v487h45v-471q0 -99 44 -151q49 -57 149 -57h149v679h45v-679h342v679h45v-679h68v-42z" />
    <glyph glyph-name="Uacute" unicode="&#xda;" horiz-adv-x="628" 
d="M360 485q-53 0 -98 -20q-36 -16 -63 -42l-17 -88q35 51 69 74q45 31 109 31q89 0 144 -60q52 -57 52 -146q0 -84 -55.5 -145.5t-140.5 -61.5t-140.5 61t-55.5 160v472h-144v-42h99v-444q0 -108 70 -180t176 -72q103 0 171 77q65 73 65 175t-64 174q-69 77 -177 77z" />
    <glyph glyph-name="Uacute" unicode="&#x42a;" horiz-adv-x="628" 
d="M360 485q-53 0 -98 -20q-36 -16 -63 -42l-17 -88q35 51 69 74q45 31 109 31q89 0 144 -60q52 -57 52 -146q0 -84 -55.5 -145.5t-140.5 -61.5t-140.5 61t-55.5 160v472h-144v-42h99v-444q0 -108 70 -180t176 -72q103 0 171 77q65 73 65 175t-64 174q-69 77 -177 77z" />
    <glyph glyph-name="Ucircumflex" unicode="&#xdb;" horiz-adv-x="678" 
d="M282 485q-53 0 -98 -20q-36 -16 -63 -42l-17 -88q35 51 69 74q45 31 109 31q89 0 144 -60q52 -57 52 -146q0 -84 -55.5 -145.5t-140.5 -61.5t-140.5 61t-55.5 160v472h-45v-486q0 -108 70 -180t176 -72q103 0 171 77q65 73 65 175t-64 174q-69 77 -177 77zM598 720v-720
h45v720h-45z" />
    <glyph glyph-name="Ucircumflex" unicode="&#x42b;" horiz-adv-x="678" 
d="M282 485q-53 0 -98 -20q-36 -16 -63 -42l-17 -88q35 51 69 74q45 31 109 31q89 0 144 -60q52 -57 52 -146q0 -84 -55.5 -145.5t-140.5 -61.5t-140.5 61t-55.5 160v472h-45v-486q0 -108 70 -180t176 -72q103 0 171 77q65 73 65 175t-64 174q-69 77 -177 77zM598 720v-720
h45v720h-45z" />
    <glyph glyph-name="Udieresis" unicode="&#xdc;" horiz-adv-x="550" 
d="M282 485q-53 0 -98 -20q-36 -16 -63 -42l-17 -88q35 51 69 74q45 31 109 31q89 0 144 -60q52 -57 52 -146q0 -84 -55.5 -145.5t-140.5 -61.5t-140.5 61t-55.5 160v472h-45v-486q0 -108 70 -180t176 -72q103 0 171 77q65 73 65 175t-64 174q-69 77 -177 77z" />
    <glyph glyph-name="Udieresis" unicode="&#x42c;" horiz-adv-x="550" 
d="M282 485q-53 0 -98 -20q-36 -16 -63 -42l-17 -88q35 51 69 74q45 31 109 31q89 0 144 -60q52 -57 52 -146q0 -84 -55.5 -145.5t-140.5 -61.5t-140.5 61t-55.5 160v472h-45v-486q0 -108 70 -180t176 -72q103 0 171 77q65 73 65 175t-64 174q-69 77 -177 77z" />
    <glyph glyph-name="Yacute" unicode="&#xdd;" horiz-adv-x="729" 
d="M332 693q131 0 227 -97q93 -94 93 -215h-406v-42h406q0 -122 -96 -217t-224 -95q-83 0 -155 44q-63 39 -109 105l-24 -52q55 -68 119 -102q74 -40 168 -40q166 0 271 120q96 110 96 259q0 146 -94 255q-105 122 -272 122q-102 0 -185 -50q-66 -39 -112 -105l32 -42
q39 64 105 105q75 47 160 47z" />
    <glyph glyph-name="Yacute" unicode="&#x42d;" horiz-adv-x="729" 
d="M332 693q131 0 227 -97q93 -94 93 -215h-406v-42h406q0 -122 -96 -217t-224 -95q-83 0 -155 44q-63 39 -109 105l-24 -52q55 -68 119 -102q74 -40 168 -40q166 0 271 120q96 110 96 259q0 146 -94 255q-105 122 -272 122q-102 0 -185 -50q-66 -39 -112 -105l32 -42
q39 64 105 105q75 47 160 47z" />
    <glyph glyph-name="Thorn" unicode="&#xde;" horiz-adv-x="953" 
d="M554 738q156 0 260.5 -109.5t104.5 -268.5q0 -158 -105 -268t-260 -110q-152 0 -259 104t-107 253h-97v-339h-45v720h45v-339h97q0 147 107 252t259 105zM554 693q-130 0 -225.5 -100.5t-95.5 -232.5t95.5 -232.5t225.5 -100.5t225 100t95 233t-95 233t-225 100z" />
    <glyph glyph-name="Thorn" unicode="&#x42e;" horiz-adv-x="953" 
d="M554 738q156 0 260.5 -109.5t104.5 -268.5q0 -158 -105 -268t-260 -110q-152 0 -259 104t-107 253h-97v-339h-45v720h45v-339h97q0 147 107 252t259 105zM554 693q-130 0 -225.5 -100.5t-95.5 -232.5t95.5 -232.5t225.5 -100.5t225 100t95 233t-95 233t-225 100z" />
    <glyph glyph-name="germandbls" unicode="&#xdf;" horiz-adv-x="550" 
d="M282 235h10l-243 -197l37 -38l357 297l17 88q-35 -51 -69 -74q-45 -31 -109 -31q-89 0 -142.5 58.5t-53.5 147.5q0 84 55.5 145.5t140.5 61.5t140.5 -61t55.5 -160v-472h45v486q0 108 -70 180t-176 72q-103 0 -169.5 -75t-66.5 -177t64 -174q69 -77 177 -77z" />
    <glyph glyph-name="germandbls" unicode="&#x42f;" horiz-adv-x="550" 
d="M282 235h10l-243 -197l37 -38l357 297l17 88q-35 -51 -69 -74q-45 -31 -109 -31q-89 0 -142.5 58.5t-53.5 147.5q0 84 55.5 145.5t140.5 61.5t140.5 -61t55.5 -160v-472h45v486q0 108 -70 180t-176 72q-103 0 -169.5 -75t-66.5 -177t64 -174q69 -77 177 -77z" />
    <glyph glyph-name="agrave" unicode="&#xe0;" horiz-adv-x="532" 
d="M461 0v192v52q0 90 -54 152t-141 62q-86 0 -140.5 -61.5t-54.5 -152.5q0 -92 56 -153t139 -61q67 0 114.5 36.5t66.5 95.5l-6 -82q-27 -47 -75 -71q-43 -21 -100 -21q-114 0 -179 81q-58 73 -58 182q0 115 77 186q69 63 160 63q113 0 180 -83q57 -71 57 -161v-256h-42z
" />
    <glyph glyph-name="agrave" unicode="&#x430;" horiz-adv-x="532" 
d="M461 0v192v52q0 90 -54 152t-141 62q-86 0 -140.5 -61.5t-54.5 -152.5q0 -92 56 -153t139 -61q67 0 114.5 36.5t66.5 95.5l-6 -82q-27 -47 -75 -71q-43 -21 -100 -21q-114 0 -179 81q-58 73 -58 182q0 115 77 186q69 63 160 63q113 0 180 -83q57 -71 57 -161v-256h-42z
" />
    <glyph glyph-name="aacute" unicode="&#xe1;" horiz-adv-x="532" 
d="M503 237q0 -115 -77 -186q-69 -63 -160 -63q-113 0 -180 83q-57 71 -57 161v145q0 150 51 223q46 66 148 88q74 16 233 16v-40h-90q-159 0 -222 -51q-78 -63 -78 -241v-128q0 -90 54 -152t141 -62q86 0 140.5 61.5t54.5 152.5q0 92 -56 153t-139 61q-67 0 -114.5 -36.5
t-66.5 -95.5l6 82q27 47 72.5 69.5t102.5 22.5q114 0 179 -81q58 -73 58 -182z" />
    <glyph glyph-name="aacute" unicode="&#x431;" horiz-adv-x="532" 
d="M503 237q0 -115 -77 -186q-69 -63 -160 -63q-113 0 -180 83q-57 71 -57 161v145q0 150 51 223q46 66 148 88q74 16 233 16v-40h-90q-159 0 -222 -51q-78 -63 -78 -241v-128q0 -90 54 -152t141 -62q86 0 140.5 61.5t54.5 152.5q0 92 -56 153t-139 61q-67 0 -114.5 -36.5
t-66.5 -95.5l6 82q27 47 72.5 69.5t102.5 22.5q114 0 179 -81q58 -73 58 -182z" />
    <glyph glyph-name="acircumflex" unicode="&#xe2;" horiz-adv-x="542" 
d="M87 674v-427q0 -97 61 -160q57 -59 138 -59q90 0 137.5 50.5t47.5 156.5q0 91 -56 143q-51 47 -129 47q-58 0 -103 -19q-54 -23 -74 -68l-8 56q22 38 72.5 54.5t110.5 16.5q58 0 95 23q45 28 45 84q0 51 -35 76.5t-88 25.5h-214zM305 714q83 0 125 -44q36 -38 36 -98
q0 -52 -22 -82t-71 -44q68 -16 104 -69.5t36 -147.5q0 -107 -42 -165q-56 -78 -189 -78q-118 0 -181 76q-56 68 -56 175v477h260z" />
    <glyph glyph-name="acircumflex" unicode="&#x432;" horiz-adv-x="542" 
d="M87 674v-427q0 -97 61 -160q57 -59 138 -59q90 0 137.5 50.5t47.5 156.5q0 91 -56 143q-51 47 -129 47q-58 0 -103 -19q-54 -23 -74 -68l-8 56q22 38 72.5 54.5t110.5 16.5q58 0 95 23q45 28 45 84q0 51 -35 76.5t-88 25.5h-214zM305 714q83 0 125 -44q36 -38 36 -98
q0 -52 -22 -82t-71 -44q68 -16 104 -69.5t36 -147.5q0 -107 -42 -165q-56 -78 -189 -78q-118 0 -181 76q-56 68 -56 175v477h260z" />
    <glyph glyph-name="atilde" unicode="&#xe3;" horiz-adv-x="320" 
d="M166 448q-59 0 -76.5 -17.5t-17.5 -81.5v-349h-42v345q0 84 26.5 113.5t106.5 29.5h139v-40h-136z" />
    <glyph glyph-name="atilde" unicode="&#x433;" horiz-adv-x="320" 
d="M166 448q-59 0 -76.5 -17.5t-17.5 -81.5v-349h-42v345q0 84 26.5 113.5t106.5 29.5h139v-40h-136z" />
    <glyph glyph-name="adieresis" unicode="&#xe4;" horiz-adv-x="532" 
d="M29 237q0 -115 77 -186q69 -63 160 -63q113 0 180 83q57 71 57 161v268q0 104 -69 158q-59 46 -148 46q-65 0 -109.5 -9.5t-77.5 -27.5l12 -40q44 22 79.5 29.5t75.5 7.5q79 0 129 -31q66 -41 66 -133v-204v-52q0 -90 -54 -152t-141 -62q-86 0 -140.5 61.5t-54.5 152.5
q0 95 51.5 154.5t143.5 59.5q67 0 116 -38q46 -35 65 -94l-6 82q-27 47 -72.5 69.5t-102.5 22.5q-124 0 -185 -81q-52 -69 -52 -182z" />
    <glyph glyph-name="adieresis" unicode="&#x434;" horiz-adv-x="532" 
d="M29 237q0 -115 77 -186q69 -63 160 -63q113 0 180 83q57 71 57 161v268q0 104 -69 158q-59 46 -148 46q-65 0 -109.5 -9.5t-77.5 -27.5l12 -40q44 22 79.5 29.5t75.5 7.5q79 0 129 -31q66 -41 66 -133v-204v-52q0 -90 -54 -152t-141 -62q-86 0 -140.5 61.5t-54.5 152.5
q0 95 51.5 154.5t143.5 59.5q67 0 116 -38q46 -35 65 -94l-6 82q-27 47 -72.5 69.5t-102.5 22.5q-124 0 -185 -81q-52 -69 -52 -182z" />
    <glyph glyph-name="aring" unicode="&#xe5;" horiz-adv-x="545" 
d="M477 265q-14 92 -78 146q-56 47 -124 47q-79 0 -135.5 -54.5t-66.5 -138.5h404zM73 225q13 -82 73 -138.5t129 -56.5q59 0 105.5 31.5t77.5 95.5l40 -17q-30 -70 -83 -109q-59 -43 -140 -43q-99 0 -170 70q-74 73 -74 186q0 98 59 171q69 85 185 85q104 0 174 -74
t70 -181v-20h-446z" />
    <glyph glyph-name="aring" unicode="&#x435;" horiz-adv-x="545" 
d="M477 265q-14 92 -78 146q-56 47 -124 47q-79 0 -135.5 -54.5t-66.5 -138.5h404zM73 225q13 -82 73 -138.5t129 -56.5q59 0 105.5 31.5t77.5 95.5l40 -17q-30 -70 -83 -109q-59 -43 -140 -43q-99 0 -170 70q-74 73 -74 186q0 98 59 171q69 85 185 85q104 0 174 -74
t70 -181v-20h-446z" />
    <glyph glyph-name="ae" unicode="&#xe6;" horiz-adv-x="598" 
d="M321 0h-42v228q-35 31 -62 44t-55 13q-93 0 -93 -99v-186h-42v181q0 69 29.5 106.5t73.5 37.5q15 0 29 -2t29 -8l-169 173h56l204 -204v204h42v-204l204 204h56l-169 -173q15 7 27.5 8.5t34.5 1.5q40 0 69.5 -37t29.5 -107v-181h-42v187q0 49 -23.5 73.5t-74.5 24.5
q-31 0 -56 -15q-33 -25 -56 -42v-228z" />
    <glyph glyph-name="ae" unicode="&#x436;" horiz-adv-x="598" 
d="M321 0h-42v228q-35 31 -62 44t-55 13q-93 0 -93 -99v-186h-42v181q0 69 29.5 106.5t73.5 37.5q15 0 29 -2t29 -8l-169 173h56l204 -204v204h42v-204l204 204h56l-169 -173q15 7 27.5 8.5t34.5 1.5q40 0 69.5 -37t29.5 -107v-181h-42v187q0 49 -23.5 73.5t-74.5 24.5
q-31 0 -56 -15q-33 -25 -56 -42v-228z" />
    <glyph glyph-name="ccedilla" unicode="&#xe7;" horiz-adv-x="518" 
d="M262 488q84 0 128 -44q40 -40 40 -105q0 -46 -20 -81t-61 -47q71 -22 107 -73q33 -46 33 -109q0 -106 -46 -169q-58 -79 -182 -79q-125 0 -186 73q-54 65 -54 181h40q0 -118 65 -171q50 -41 132 -41q71 0 120 36q69 51 69 157q0 69 -51.5 116.5t-122.5 47.5h-43l7 40
q69 0 110 33t41 79q0 56 -35.5 85t-92.5 29h-151v42h153z" />
    <glyph glyph-name="ccedilla" unicode="&#x437;" horiz-adv-x="518" 
d="M262 488q84 0 128 -44q40 -40 40 -105q0 -46 -20 -81t-61 -47q71 -22 107 -73q33 -46 33 -109q0 -106 -46 -169q-58 -79 -182 -79q-125 0 -186 73q-54 65 -54 181h40q0 -118 65 -171q50 -41 132 -41q71 0 120 36q69 51 69 157q0 69 -51.5 116.5t-122.5 47.5h-43l7 40
q69 0 110 33t41 79q0 56 -35.5 85t-92.5 29h-151v42h153z" />
    <glyph glyph-name="egrave" unicode="&#xe8;" horiz-adv-x="480" 
d="M49 488h42v-309q0 -73 44 -113q39 -36 95 -36q57 0 103.5 23t62.5 66v369h42v-488h-42v45q-25 -21 -75.5 -39t-95.5 -18q-76 0 -122 45q-54 52 -54 154v301z" />
    <glyph glyph-name="egrave" unicode="&#x438;" horiz-adv-x="480" 
d="M49 488h42v-309q0 -73 44 -113q39 -36 95 -36q57 0 103.5 23t62.5 66v369h42v-488h-42v45q-25 -21 -75.5 -39t-95.5 -18q-76 0 -122 45q-54 52 -54 154v301z" />
    <glyph glyph-name="eacute" unicode="&#xe9;" horiz-adv-x="483" 
d="M50 488h42v-309q0 -73 44 -113q39 -36 95 -36q57 0 103.5 23t62.5 66v369h42v-488h-42v45q-25 -21 -75.5 -39t-95.5 -18q-76 0 -122 45q-54 52 -54 154v301zM179 551h135v-38h-135v38z" />
    <glyph glyph-name="eacute" unicode="&#x439;" horiz-adv-x="483" 
d="M50 488h42v-309q0 -73 44 -113q39 -36 95 -36q57 0 103.5 23t62.5 66v369h42v-488h-42v45q-25 -21 -75.5 -39t-95.5 -18q-76 0 -122 45q-54 52 -54 154v301zM179 551h135v-38h-135v38z" />
    <glyph glyph-name="ecircumflex" unicode="&#xea;" horiz-adv-x="407" 
d="M83 0h-42v488h42v-208l236 208h60l-196 -174q25 5 45 5q62 0 101 -38t39 -107v-174h-42v176q0 47 -30 75t-83 28q-41 0 -62 -6q-37 -11 -68 -44v-229z" />
    <glyph glyph-name="ecircumflex" unicode="&#x43a;" horiz-adv-x="407" 
d="M83 0h-42v488h42v-208l236 208h60l-196 -174q25 5 45 5q62 0 101 -38t39 -107v-174h-42v176q0 47 -30 75t-83 28q-41 0 -62 -6q-37 -11 -68 -44v-229z" />
    <glyph glyph-name="edieresis" unicode="&#xeb;" horiz-adv-x="456" 
d="M118 316v-203q0 -66 -20 -92q-23 -30 -89 -30v40q40 0 53.5 16.5t13.5 71.5v214q0 77 51 122t126 45q77 0 126.5 -47.5t49.5 -127.5v-325h-42v314q0 67 -36.5 105.5t-97.5 38.5q-60 0 -97.5 -36.5t-37.5 -105.5z" />
    <glyph glyph-name="edieresis" unicode="&#x43b;" horiz-adv-x="456" 
d="M118 316v-203q0 -66 -20 -92q-23 -30 -89 -30v40q40 0 53.5 16.5t13.5 71.5v214q0 77 51 122t126 45q77 0 126.5 -47.5t49.5 -127.5v-325h-42v314q0 67 -36.5 105.5t-97.5 38.5q-60 0 -97.5 -36.5t-37.5 -105.5z" />
    <glyph glyph-name="igrave" unicode="&#xec;" horiz-adv-x="589" 
d="M463 495q-41 0 -54 -42l-110 -371l-110 371q-13 42 -54 42q-22 0 -39 -12.5t-23 -43.5l-62 -439h42l63 432q5 21 19 21q11 0 18 -26l108 -377q7 -25 14.5 -37.5t23.5 -12.5q14 0 23 13.5t15 36.5l108 377q7 26 18 26q14 0 19 -21l63 -432h42l-62 439q-5 29 -23 42.5
t-39 13.5z" />
    <glyph glyph-name="igrave" unicode="&#x43c;" horiz-adv-x="589" 
d="M463 495q-41 0 -54 -42l-110 -371l-110 371q-13 42 -54 42q-22 0 -39 -12.5t-23 -43.5l-62 -439h42l63 432q5 21 19 21q11 0 18 -26l108 -377q7 -25 14.5 -37.5t23.5 -12.5q14 0 23 13.5t15 36.5l108 377q7 26 18 26q14 0 19 -21l63 -432h42l-62 439q-5 29 -23 42.5
t-39 13.5z" />
    <glyph glyph-name="iacute" unicode="&#xed;" horiz-adv-x="470" 
d="M39 0v488h42v-219h312v219h42v-488h-42v229h-312v-229h-42z" />
    <glyph glyph-name="iacute" unicode="&#x43d;" horiz-adv-x="470" 
d="M39 0v488h42v-219h312v219h42v-488h-42v229h-312v-229h-42z" />
    <glyph glyph-name="icircumflex" unicode="&#xee;" horiz-adv-x="548" 
d="M519 244q0 -100 -63 -174q-70 -82 -180 -82q-109 0 -179 79q-66 74 -66 177q0 105 68.5 180.5t175.5 75.5q109 0 179 -79q65 -74 65 -177zM275 458q-90 0 -149 -70q-53 -63 -53 -144q0 -75 58 -142q62 -72 144 -72q84 0 143 66t59 148q0 83 -57 147q-60 67 -145 67z" />
    <glyph glyph-name="icircumflex" unicode="&#x43e;" horiz-adv-x="548" 
d="M519 244q0 -100 -63 -174q-70 -82 -180 -82q-109 0 -179 79q-66 74 -66 177q0 105 68.5 180.5t175.5 75.5q109 0 179 -79q65 -74 65 -177zM275 458q-90 0 -149 -70q-53 -63 -53 -144q0 -75 58 -142q62 -72 144 -72q84 0 143 66t59 148q0 83 -57 147q-60 67 -145 67z" />
    <glyph glyph-name="idieresis" unicode="&#xef;" horiz-adv-x="462" 
d="M34 0v333q0 75 62 123q57 44 135 44q79 0 137 -47q62 -51 62 -128v-325h-42v314q0 65 -46.5 104.5t-110.5 39.5q-63 0 -106 -35q-49 -40 -49 -107v-316h-42z" />
    <glyph glyph-name="idieresis" unicode="&#x43f;" horiz-adv-x="462" 
d="M34 0v333q0 75 62 123q57 44 135 44q79 0 137 -47q62 -51 62 -128v-325h-42v314q0 65 -46.5 104.5t-110.5 39.5q-63 0 -106 -35q-49 -40 -49 -107v-316h-42z" />
    <glyph glyph-name="eth" unicode="&#xf0;" horiz-adv-x="532" 
d="M71 -232v424v52q0 90 54 152t141 62q86 0 140.5 -61.5t54.5 -152.5q0 -92 -56 -153t-139 -61q-67 0 -114.5 36.5t-66.5 95.5l6 -82q27 -47 75 -71q43 -21 100 -21q114 0 179 81q58 73 58 182q0 115 -77 186q-69 63 -160 63q-113 0 -180 -83q-57 -71 -57 -161v-488h42z
" />
    <glyph glyph-name="eth" unicode="&#x440;" horiz-adv-x="532" 
d="M71 -232v424v52q0 90 54 152t141 62q86 0 140.5 -61.5t54.5 -152.5q0 -92 -56 -153t-139 -61q-67 0 -114.5 36.5t-66.5 95.5l6 -82q27 -47 75 -71q43 -21 100 -21q114 0 179 81q58 73 58 182q0 115 -77 186q-69 63 -160 63q-113 0 -180 -83q-57 -71 -57 -161v-488h42z
" />
    <glyph glyph-name="ntilde" unicode="&#xf1;" horiz-adv-x="504" 
d="M31 244q0 107 68 181.5t176 74.5q69 0 126 -34q50 -30 76 -77l-35 -27q-25 41 -69.5 68t-97.5 27q-84 0 -143 -63t-59 -150q0 -75 57 -142q62 -72 145 -72q54 0 101 30q39 25 66 66l35 -29q-37 -54 -84.5 -81.5t-117.5 -27.5q-109 0 -179 80q-65 75 -65 176z" />
    <glyph glyph-name="ntilde" unicode="&#x441;" horiz-adv-x="504" 
d="M31 244q0 107 68 181.5t176 74.5q69 0 126 -34q50 -30 76 -77l-35 -27q-25 41 -69.5 68t-97.5 27q-84 0 -143 -63t-59 -150q0 -75 57 -142q62 -72 145 -72q54 0 101 30q39 25 66 66l35 -29q-37 -54 -84.5 -81.5t-117.5 -27.5q-109 0 -179 80q-65 75 -65 176z" />
    <glyph glyph-name="ograve" unicode="&#xf2;" horiz-adv-x="700" 
d="M41 340q0 78 54 122q47 38 112 38q51 0 90 -25.5t55 -70.5q16 45 54.5 70.5t90.5 25.5q65 0 111 -37q55 -44 55 -123v-340h-42v341q0 60 -40 91q-33 26 -84 26q-53 0 -88.5 -33.5t-35.5 -93.5v-331h-42v331q0 59 -36 93t-88 34q-49 0 -83 -27q-41 -32 -41 -91v-340h-42
v340z" />
    <glyph glyph-name="ograve" unicode="&#x442;" horiz-adv-x="700" 
d="M41 340q0 78 54 122q47 38 112 38q51 0 90 -25.5t55 -70.5q16 45 54.5 70.5t90.5 25.5q65 0 111 -37q55 -44 55 -123v-340h-42v341q0 60 -40 91q-33 26 -84 26q-53 0 -88.5 -33.5t-35.5 -93.5v-331h-42v331q0 59 -36 93t-88 34q-49 0 -83 -27q-41 -32 -41 -91v-340h-42
v340z" />
    <glyph glyph-name="oacute" unicode="&#xf3;" horiz-adv-x="479" 
d="M47 488h42v-313q0 -72 44 -111q39 -34 95 -34q54 0 100 30t65 76v352h42v-526q0 -93 -63 -144q-57 -46 -146 -46q-59 0 -108.5 19.5t-70.5 55.5l42 30q35 -38 63.5 -50.5t64.5 -12.5q72 0 121 35q55 39 55 109v108q-23 -36 -66 -57t-105 -21q-76 0 -122 44
q-53 51 -53 153v303z" />
    <glyph glyph-name="oacute" unicode="&#x443;" horiz-adv-x="479" 
d="M47 488h42v-313q0 -72 44 -111q39 -34 95 -34q54 0 100 30t65 76v352h42v-526q0 -93 -63 -144q-57 -46 -146 -46q-59 0 -108.5 19.5t-70.5 55.5l42 30q35 -38 63.5 -50.5t64.5 -12.5q72 0 121 35q55 39 55 109v108q-23 -36 -66 -57t-105 -21q-76 0 -122 44
q-53 51 -53 153v303z" />
    <glyph glyph-name="ocircumflex" unicode="&#xf4;" horiz-adv-x="932" 
d="M491 -243v504q0 92 52 147q48 51 119 51q169 0 169 -218q0 -96 -42.5 -153.5t-117.5 -57.5q-62 0 -100 32q-30 26 -65 94l6 -82q20 -44 62.5 -65t96.5 -21q202 0 202 256q0 131 -53 194t-154 63q-78 0 -131 -43q-48 -39 -65 -104q-17 65 -65 104q-53 43 -131 43
q-102 0 -154.5 -62.5t-52.5 -194.5q0 -126 52 -191t150 -65q55 0 96.5 20t62.5 66l6 82q-33 -66 -65 -93q-39 -33 -100 -33q-74 0 -117 58t-43 153q0 218 169 218q71 0 119 -51q52 -55 52 -147v-504h42z" />
    <glyph glyph-name="ocircumflex" unicode="&#x444;" horiz-adv-x="932" 
d="M491 -243v504q0 92 52 147q48 51 119 51q169 0 169 -218q0 -96 -42.5 -153.5t-117.5 -57.5q-62 0 -100 32q-30 26 -65 94l6 -82q20 -44 62.5 -65t96.5 -21q202 0 202 256q0 131 -53 194t-154 63q-78 0 -131 -43q-48 -39 -65 -104q-17 65 -65 104q-53 43 -131 43
q-102 0 -154.5 -62.5t-52.5 -194.5q0 -126 52 -191t150 -65q55 0 96.5 20t62.5 66l6 82q-33 -66 -65 -93q-39 -33 -100 -33q-74 0 -117 58t-43 153q0 218 169 218q71 0 119 -51q52 -55 52 -147v-504h42z" />
    <glyph glyph-name="otilde" unicode="&#xf5;" horiz-adv-x="446" 
d="M425 407q0 -62 -26.5 -100t-72.5 -54q43 -15 71 -63.5t28 -109.5v-80h-42v76q0 76 -45 116.5t-112 40.5q-64 0 -107 -36q-50 -42 -50 -121v-76h-42v80q0 65 27.5 111.5t71.5 61.5q-47 16 -71 50q-28 39 -28 104v81h42v-79q0 -66 49 -103q44 -33 108 -33t108 33
q49 37 49 103v79h42v-81z" />
    <glyph glyph-name="otilde" unicode="&#x445;" horiz-adv-x="446" 
d="M425 407q0 -62 -26.5 -100t-72.5 -54q43 -15 71 -63.5t28 -109.5v-80h-42v76q0 76 -45 116.5t-112 40.5q-64 0 -107 -36q-50 -42 -50 -121v-76h-42v80q0 65 27.5 111.5t71.5 61.5q-47 16 -71 50q-28 39 -28 104v81h42v-79q0 -66 49 -103q44 -33 108 -33t108 33
q49 37 49 103v79h42v-81z" />
    <glyph glyph-name="odieresis" unicode="&#xf6;" horiz-adv-x="483" 
d="M76 488v-304q0 -69 34.5 -105t95.5 -36h182v445h42v-446h61v-41h-279q-85 0 -131.5 43.5t-46.5 123.5v320h42z" />
    <glyph glyph-name="odieresis" unicode="&#x446;" horiz-adv-x="483" 
d="M76 488v-304q0 -69 34.5 -105t95.5 -36h182v445h42v-446h61v-41h-279q-85 0 -131.5 43.5t-46.5 123.5v320h42z" />
    <glyph glyph-name="divide" unicode="&#xf7;" horiz-adv-x="442" 
d="M413 0h-42v229q-25 -22 -67 -38t-87 -16q-80 0 -129 41q-58 49 -58 150v122h42v-132q0 -67 43 -105q38 -34 94 -34q58 0 98.5 18t63.5 60v193h42v-488z" />
    <glyph glyph-name="divide" unicode="&#x447;" horiz-adv-x="442" 
d="M413 0h-42v229q-25 -22 -67 -38t-87 -16q-80 0 -129 41q-58 49 -58 150v122h42v-132q0 -67 43 -105q38 -34 94 -34q58 0 98.5 18t63.5 60v193h42v-488z" />
    <glyph glyph-name="oslash" unicode="&#xf8;" horiz-adv-x="700" 
d="M83 488v-304q0 -69 34.5 -105t95.5 -36h118v445h42v-445h248v445h42v-487h-444q-85 0 -131.5 43.5t-46.5 123.5v320h42z" />
    <glyph glyph-name="oslash" unicode="&#x448;" horiz-adv-x="700" 
d="M83 488v-304q0 -69 34.5 -105t95.5 -36h118v445h42v-445h248v445h42v-487h-444q-85 0 -131.5 43.5t-46.5 123.5v320h42z" />
    <glyph glyph-name="ugrave" unicode="&#xf9;" horiz-adv-x="700" 
d="M83 488v-304q0 -69 34.5 -105t95.5 -36h118v445h42v-445h248v445h42v-446h61v-41h-505q-85 0 -131.5 43.5t-46.5 123.5v320h42z" />
    <glyph glyph-name="ugrave" unicode="&#x449;" horiz-adv-x="700" 
d="M83 488v-304q0 -69 34.5 -105t95.5 -36h118v445h42v-445h248v445h42v-446h61v-41h-505q-85 0 -131.5 43.5t-46.5 123.5v320h42z" />
    <glyph glyph-name="uacute" unicode="&#xfa;" horiz-adv-x="486" 
d="M130 488v-309q0 -60 41.5 -104.5t102.5 -44.5q70 0 107 42t37 107q0 70 -35 108.5t-109 38.5q-45 0 -79 -32q-22 -21 -53 -70l12 81q11 12 22 25q39 38 98 38q90 0 138 -48t48 -141q0 -91 -52 -141t-134 -50q-81 0 -133.5 50.5t-52.5 133.5v276h-73v40h115z" />
    <glyph glyph-name="uacute" unicode="&#x44a;" horiz-adv-x="486" 
d="M130 488v-309q0 -60 41.5 -104.5t102.5 -44.5q70 0 107 42t37 107q0 70 -35 108.5t-109 38.5q-45 0 -79 -32q-22 -21 -53 -70l12 81q11 12 22 25q39 38 98 38q90 0 138 -48t48 -141q0 -91 -52 -141t-134 -50q-81 0 -133.5 50.5t-52.5 133.5v276h-73v40h115z" />
    <glyph glyph-name="ucircumflex" unicode="&#xfb;" horiz-adv-x="533" 
d="M34 488h42v-309q0 -60 41.5 -104.5t102.5 -44.5q70 0 107 42t37 107q0 70 -35 108.5t-109 38.5q-45 0 -79 -32q-22 -21 -53 -70l12 81q11 12 22 25q39 38 98 38q90 0 138 -48t48 -141q0 -91 -52 -141t-134 -50q-81 0 -133.5 50.5t-52.5 133.5v316zM459 488v-488h42v488
h-42z" />
    <glyph glyph-name="ucircumflex" unicode="&#x44b;" horiz-adv-x="533" 
d="M34 488h42v-309q0 -60 41.5 -104.5t102.5 -44.5q70 0 107 42t37 107q0 70 -35 108.5t-109 38.5q-45 0 -79 -32q-22 -21 -53 -70l12 81q11 12 22 25q39 38 98 38q90 0 138 -48t48 -141q0 -91 -52 -141t-134 -50q-81 0 -133.5 50.5t-52.5 133.5v316zM459 488v-488h42v488
h-42z" />
    <glyph glyph-name="udieresis" unicode="&#xfc;" horiz-adv-x="432" 
d="M34 488h42v-309q0 -60 41.5 -104.5t102.5 -44.5q70 0 107 42t37 107q0 70 -35 108.5t-109 38.5q-45 0 -79 -32q-22 -21 -53 -70l12 81q11 12 22 25q39 38 98 38q90 0 138 -48t48 -141q0 -91 -52 -141t-134 -50q-81 0 -133.5 50.5t-52.5 133.5v316z" />
    <glyph glyph-name="udieresis" unicode="&#x44c;" horiz-adv-x="432" 
d="M34 488h42v-309q0 -60 41.5 -104.5t102.5 -44.5q70 0 107 42t37 107q0 70 -35 108.5t-109 38.5q-45 0 -79 -32q-22 -21 -53 -70l12 81q11 12 22 25q39 38 98 38q90 0 138 -48t48 -141q0 -91 -52 -141t-134 -50q-81 0 -133.5 50.5t-52.5 133.5v316z" />
    <glyph glyph-name="yacute" unicode="&#xfd;" horiz-adv-x="504" 
d="M477 244q0 107 -68 181.5t-176 74.5q-69 0 -126 -34q-50 -30 -76 -77l35 -27q25 41 69.5 68t97.5 27q77 0 135 -55t66 -134h-237v-40h237q-7 -74 -62 -133q-60 -65 -139 -65q-54 0 -101 30q-39 25 -66 66l-35 -29q37 -54 84.5 -81.5t117.5 -27.5q109 0 179 80
q65 75 65 176z" />
    <glyph glyph-name="yacute" unicode="&#x44d;" horiz-adv-x="504" 
d="M477 244q0 107 -68 181.5t-176 74.5q-69 0 -126 -34q-50 -30 -76 -77l35 -27q25 41 69.5 68t97.5 27q77 0 135 -55t66 -134h-237v-40h237q-7 -74 -62 -133q-60 -65 -139 -65q-54 0 -101 30q-39 25 -66 66l-35 -29q37 -54 84.5 -81.5t117.5 -27.5q109 0 179 80
q65 75 65 176z" />
    <glyph glyph-name="thorn" unicode="&#xfe;" horiz-adv-x="670" 
d="M641 244q0 -100 -63 -174q-70 -82 -180 -82q-105 0 -174.5 70.5t-69.5 165.5h-87v-224h-42v488h42v-224h87q0 98 70 167t173 69q109 0 179 -79q65 -74 65 -177zM397 458q-90 0 -149 -70q-53 -63 -53 -144q0 -75 58 -142q62 -72 144 -72q84 0 143 66t59 148q0 83 -57 147
q-60 67 -145 67z" />
    <glyph glyph-name="thorn" unicode="&#x44e;" horiz-adv-x="670" 
d="M641 244q0 -100 -63 -174q-70 -82 -180 -82q-105 0 -174.5 70.5t-69.5 165.5h-87v-224h-42v488h42v-224h87q0 98 70 167t173 69q109 0 179 -79q65 -74 65 -177zM397 458q-90 0 -149 -70q-53 -63 -53 -144q0 -75 58 -142q62 -72 144 -72q84 0 143 66t59 148q0 83 -57 147
q-60 67 -145 67z" />
    <glyph glyph-name="ydieresis" unicode="&#xff;" horiz-adv-x="435" 
d="M400 0h-42v309q0 60 -41.5 104.5t-102.5 44.5q-70 0 -107 -42t-37 -107q0 -70 35 -108.5t109 -38.5q46 0 79 28q23 19 52 66l-11 -88l-279 -182l-27 35l151 101q-74 9 -112.5 56.5t-38.5 130.5q0 91 52 141t134 50q81 0 133.5 -50.5t52.5 -133.5v-316z" />
    <glyph glyph-name="ydieresis" unicode="&#x44f;" horiz-adv-x="435" 
d="M400 0h-42v309q0 60 -41.5 104.5t-102.5 44.5q-70 0 -107 -42t-37 -107q0 -70 35 -108.5t109 -38.5q46 0 79 28q23 19 52 66l-11 -88l-279 -182l-27 35l151 101q-74 9 -112.5 56.5t-38.5 130.5q0 91 52 141t134 50q81 0 133.5 -50.5t52.5 -133.5v-316z" />
  </font>
</defs>
</svg>
